<svg xmlns="http://www.w3.org/2000/svg" xmlns:xlink="http://www.w3.org/1999/xlink" width="500" zoomAndPan="magnify" viewBox="0 0 375 374.999991" height="500" preserveAspectRatio="xMidYMid meet" version="1.0"><defs><clipPath id="01281ab954"><path d="M 4 107 L 371 107 L 371 367 L 4 367 Z M 4 107 " clip-rule="nonzero"/></clipPath><clipPath id="04141e6b86"><path d="M 50.578125 191.160156 L 50.578125 232.746094 C 50.578125 234.472656 51.503906 236.0625 53.003906 236.925781 L 96.023438 261.765625 L 141.660156 288.105469 L 185.09375 313.171875 C 186.5625 314.03125 188.40625 314.03125 189.90625 313.171875 L 317.753906 239.378906 C 317.753906 239.378906 317.78125 239.476562 317.78125 239.503906 L 362.84375 213.480469 C 366.03125 211.628906 370.050781 213.929688 370.050781 217.628906 L 370.050781 259.246094 C 370.050781 260.933594 369.128906 262.53125 367.65625 263.390625 L 189.90625 365.886719 C 188.40625 366.75 186.5625 366.75 185.09375 365.886719 L 141.847656 340.921875 L 4.949219 261.890625 L 4.949219 112.109375 C 4.949219 108.414062 8.96875 106.117188 12.15625 107.960938 L 19.140625 111.984375 L 25.867188 115.875 L 32.371094 119.640625 L 38.65625 123.277344 L 44.714844 126.75 L 50.578125 130.132812 L 50.578125 130.164062 L 187.289062 209.054688 L 187.515625 209.183594 L 192.105469 206.535156 L 362.84375 107.960938 C 366.03125 106.109375 370.050781 108.40625 370.050781 112.140625 L 370.050781 153.726562 C 370.050781 155.453125 369.128906 157.011719 367.65625 157.875 L 187.515625 261.898438 L 187.289062 261.773438 L 141.621094 235.433594 L 57.816406 187.019531 C 54.601562 185.167969 50.578125 187.46875 50.578125 191.167969 Z M 50.578125 191.160156 " clip-rule="nonzero"/></clipPath><clipPath id="c4344c1322"><path d="M 29 8 L 346 8 L 346 111 L 29 111 Z M 29 8 " clip-rule="nonzero"/></clipPath><clipPath id="9c113895a2"><path d="M 32.753906 81.757812 L 186.78125 9.015625 C 188.339844 8.28125 190.148438 8.289062 191.691406 9.039062 L 341.941406 81.710938 C 346.058594 83.707031 346.265625 89.496094 342.300781 91.785156 L 310.402344 110.160156 C 308.765625 111.105469 306.773438 111.171875 305.078125 110.347656 L 192.121094 55.65625 C 190.582031 54.914062 188.78125 54.898438 187.230469 55.621094 L 69.335938 110.414062 C 67.648438 111.195312 65.691406 111.113281 64.085938 110.183594 L 32.332031 91.851562 C 28.351562 89.550781 28.589844 83.722656 32.746094 81.765625 Z M 32.753906 81.757812 " clip-rule="nonzero"/></clipPath></defs><path fill="#ffffff" d="M 192.105469 206.273438 L 192.105469 206.535156 L 187.515625 209.175781 L 187.289062 209.046875 Z M 192.105469 206.273438 " fill-opacity="1" fill-rule="nonzero"/><g clip-path="url(#01281ab954)"><g clip-path="url(#04141e6b86)"><path fill="#ffbd59" d="M 4.949219 106.109375 L 4.949219 366.75 L 370.050781 366.75 L 370.050781 106.109375 Z M 4.949219 106.109375 " fill-opacity="1" fill-rule="nonzero"/></g></g><g clip-path="url(#c4344c1322)"><g clip-path="url(#9c113895a2)"><path fill="#ffbd59" d="M 28.351562 8.28125 L 28.351562 111.195312 L 346.265625 111.195312 L 346.265625 8.28125 Z M 28.351562 8.28125 " fill-opacity="1" fill-rule="nonzero"/></g></g></svg>