<svg xmlns="http://www.w3.org/2000/svg" xmlns:xlink="http://www.w3.org/1999/xlink" width="500" zoomAndPan="magnify" viewBox="0 0 375 374.999991" height="500" preserveAspectRatio="xMidYMid meet" version="1.0"><defs><filter x="0%" y="0%" width="100%" height="100%" id="ae97abacf7"><feColorMatrix values="0 0 0 0 1 0 0 0 0 1 0 0 0 0 1 0 0 0 1 0" color-interpolation-filters="sRGB"/></filter><mask id="1e3d92a2f6"><g filter="url(#ae97abacf7)"><rect x="-37.5" width="450" fill="#000000" y="-37.499999" height="449.999989" fill-opacity="0.18"/></g></mask><clipPath id="9b9c2911ea"><path d="M 0 1.417969 L 372.480469 1.417969 L 372.480469 374 L 0 374 Z M 0 1.417969 " clip-rule="nonzero"/></clipPath><clipPath id="3a2d7ebc96"><rect x="0" width="373" y="0" height="374"/></clipPath></defs><g mask="url(#1e3d92a2f6)"><g transform="matrix(1, 0, 0, 1, 0, 1)"><g clip-path="url(#3a2d7ebc96)"><g clip-path="url(#9b9c2911ea)"><path fill="#000000" d="M 40.921875 1.5 C 39.636719 9.550781 38.695312 17.597656 39.378906 25.816406 C 40.578125 41.566406 34.757812 54.496094 23.542969 65.367188 C 19.175781 69.5625 15.324219 74.269531 13.269531 80.175781 C 9.84375 89.851562 14.808594 100.039062 24.484375 103.464844 C 40.152344 109.113281 67.804688 98.753906 67.886719 73.5 C 67.886719 67.765625 66.691406 62.285156 65.917969 56.632812 C 64.808594 49.1875 65.40625 41.824219 68.832031 34.976562 C 72.855469 26.929688 79.617188 22.902344 88.433594 21.621094 C 98.28125 20.164062 108.210938 21.621094 118.054688 20.164062 C 127.902344 18.710938 137.660156 17.167969 144.9375 9.464844 C 147.164062 7.152344 149.046875 4.582031 150.246094 1.5 C 152.472656 1.5 154.695312 1.5 156.921875 1.5 C 153.753906 11.261719 147.164062 17.851562 137.832031 21.792969 C 126.789062 26.5 115.058594 26.84375 103.332031 27.183594 C 98.195312 27.355469 92.972656 27.097656 87.835938 28.125 C 79.019531 30.007812 73.625 35.746094 72.082031 44.820312 C 71.140625 50.726562 72.167969 56.378906 73.28125 62.113281 C 75.851562 75.039062 73.796875 87.027344 65.40625 97.382812 C 57.785156 106.714844 37.410156 116.132812 20.460938 108.683594 C 6.25 102.4375 1.539062 85.742188 10.1875 71.957031 C 13.867188 66.050781 19.003906 61.257812 23.542969 56.035156 C 30.648438 47.902344 33.644531 38.484375 33.046875 27.699219 C 32.445312 18.964844 31.675781 10.234375 33.472656 1.5 C 35.957031 1.5 38.4375 1.5 40.921875 1.5 Z M 313.847656 373.390625 C 321.207031 366.96875 324.546875 358.410156 325.660156 348.992188 C 326.945312 337.179688 332.9375 329.300781 343.550781 324.25 C 351.683594 320.398438 359.734375 316.289062 366.410156 310.039062 C 368.378906 308.242188 370.089844 306.101562 371.890625 304.21875 C 371.890625 298.3125 371.890625 292.320312 371.890625 286.410156 C 369.664062 283.15625 366.324219 281.53125 362.644531 280.675781 C 353.140625 278.363281 344.066406 280.417969 335.761719 284.613281 C 321.292969 291.804688 310.765625 302.675781 307.851562 319.285156 C 305.710938 331.441406 301.519531 342.316406 291.5 350.277344 C 289.019531 352.246094 287.050781 354.984375 285.421875 357.722656 C 282.339844 362.773438 281.3125 367.996094 284.140625 373.476562 C 293.984375 373.390625 303.914062 373.390625 313.847656 373.390625 Z M 289.789062 369.453125 C 288.164062 366.113281 289.703125 362.945312 291.671875 360.207031 C 293.128906 358.238281 294.667969 356.183594 296.550781 354.640625 C 306.3125 346.507812 311.707031 335.980469 313.675781 323.652344 C 316.671875 304.988281 328.144531 294.117188 345.523438 288.464844 C 349.289062 287.265625 353.140625 286.238281 357.078125 286.324219 C 360.84375 286.410156 364.613281 287.183594 366.496094 291.035156 C 368.550781 295.144531 367.265625 298.996094 364.527344 302.421875 C 359.648438 308.5 352.882812 311.835938 346.292969 315.519531 C 344.066406 316.804688 341.753906 318.085938 339.441406 319.113281 C 327.199219 324.679688 320.953125 334.523438 319.152344 347.535156 C 318.039062 356.097656 315.558594 363.886719 308.195312 369.28125 C 305.113281 371.59375 301.859375 373.046875 297.921875 372.792969 C 294.753906 372.707031 291.332031 372.621094 289.789062 369.453125 Z M 371.890625 104.917969 C 368.894531 105.089844 367.09375 107.230469 365.210938 109.199219 C 361.1875 113.308594 358.535156 118.359375 356.222656 123.582031 C 350.65625 136.421875 343.296875 148.066406 332.59375 157.226562 C 326.429688 162.535156 320.007812 167.585938 313.675781 172.722656 C 299.632812 184.023438 288.25 197.035156 285.9375 215.78125 C 283.453125 236.242188 298.09375 248.316406 316.242188 245.746094 C 320.867188 245.0625 325.402344 243.863281 329.769531 242.320312 C 344.664062 237.1875 357.164062 240.695312 367.78125 251.996094 C 368.894531 253.195312 369.921875 254.734375 371.804688 255.078125 C 371.804688 251.824219 371.804688 248.65625 371.804688 245.402344 C 368.722656 243.433594 365.554688 241.464844 362.472656 239.496094 C 354.253906 234.1875 345.4375 232.304688 335.675781 234.1875 C 328.65625 235.472656 321.980469 238.214844 314.875 239.242188 C 304.855469 240.695312 294.328125 235.730469 292.699219 223.832031 C 291.417969 214.585938 294.15625 206.539062 298.605469 198.832031 C 304.257812 188.988281 312.5625 181.539062 321.550781 174.949219 C 339.871094 161.507812 354.9375 145.410156 363.414062 123.839844 C 365.125 119.472656 367.523438 115.105469 371.71875 112.28125 C 371.890625 109.796875 371.890625 107.316406 371.890625 104.917969 Z M 159.148438 373.390625 C 158.636719 372.535156 158.207031 371.679688 157.609375 370.910156 C 150.074219 361.320312 146.648438 350.703125 148.53125 338.375 C 149.816406 330.5 151.015625 322.539062 151.015625 314.492188 C 151.015625 307.042969 151.015625 299.679688 148.277344 292.574219 C 140.570312 272.628906 112.578125 261.753906 91.261719 271.257812 C 86.292969 273.484375 82.699219 277.078125 81.757812 282.730469 C 81.074219 286.925781 81.5 291.121094 82.101562 295.316406 C 83.382812 303.449219 85.867188 311.410156 86.636719 319.628906 C 87.578125 329.386719 86.039062 338.460938 79.019531 345.738281 C 74.394531 350.53125 68.402344 353.699219 62.921875 357.554688 C 56.671875 361.917969 50.425781 366.457031 46.742188 373.390625 C 49.226562 373.390625 51.707031 373.390625 54.191406 373.390625 C 59.5 366.628906 66.691406 362.261719 73.796875 357.722656 C 90.0625 347.28125 94.769531 335.378906 92.371094 315.605469 C 91.429688 307.726562 89.292969 300.195312 87.921875 292.402344 C 86.464844 283.929688 88.777344 278.191406 95.539062 276.050781 C 109.921875 271.429688 123.019531 274.167969 134.664062 283.757812 C 139.289062 287.523438 142.199219 292.402344 143.652344 298.3125 C 146.394531 309.867188 145.109375 321.425781 143.140625 332.898438 C 140.828125 346.421875 142.027344 359.179688 149.816406 370.824219 C 150.332031 371.59375 151.445312 372.105469 151.015625 373.304688 C 153.667969 373.390625 156.410156 373.390625 159.148438 373.390625 Z M 371.890625 139.078125 C 369.664062 138.992188 368.207031 140.53125 366.753906 141.730469 C 362.984375 144.984375 359.816406 148.75 357.507812 153.203125 C 352.285156 163.476562 346.890625 173.578125 337.644531 181.027344 C 330.710938 186.675781 323.777344 192.15625 316.5 197.292969 C 313.503906 199.433594 310.507812 201.65625 308.453125 204.910156 C 305.882812 209.105469 304.429688 213.472656 307.167969 218.09375 C 309.738281 222.460938 313.847656 224.34375 318.898438 224.515625 C 323.261719 224.601562 327.117188 222.804688 330.796875 221.003906 C 340.300781 216.46875 349.628906 216.726562 358.789062 221.777344 C 362.898438 224 367.179688 225.972656 371.632812 227.511719 C 371.632812 225.027344 371.632812 222.546875 371.632812 220.0625 C 368.121094 219.636719 365.210938 217.582031 362.214844 216.039062 C 351.429688 210.304688 340.46875 209.363281 329.253906 214.5 C 326.773438 215.613281 324.289062 216.726562 321.722656 217.496094 C 318.382812 218.523438 315.042969 218.09375 313.160156 215.011719 C 311.277344 212.015625 313.160156 209.363281 315.214844 207.050781 C 317.527344 204.484375 320.4375 202.511719 323.347656 200.628906 C 339.957031 189.242188 354.765625 176.316406 362.898438 157.140625 C 364.699219 152.859375 367.609375 149.007812 371.71875 146.4375 C 371.890625 144.042969 371.890625 141.558594 371.890625 139.078125 Z M 0 262.527344 C 1.371094 263.125 2.652344 263.726562 4.023438 264.324219 C 16.949219 270.230469 29.621094 268.261719 39.894531 258.503906 C 51.023438 247.886719 55.816406 234.703125 55.132812 219.464844 C 54.191406 198.488281 42.976562 194.039062 30.648438 191.296875 C 20.203125 188.988281 9.675781 187.191406 0 182.222656 C 0 184.707031 0 187.191406 0 189.671875 C 7.621094 192.925781 15.496094 195.152344 23.714844 196.605469 C 27.480469 197.292969 31.160156 198.234375 34.757812 199.347656 C 41.265625 201.316406 45.542969 205.59375 47.511719 212.101562 C 51.792969 226.398438 45.800781 245.660156 34.074219 255.078125 C 25.597656 261.839844 16.523438 263.039062 6.675781 258.417969 C 4.453125 257.390625 2.226562 256.277344 0.0859375 255.164062 C 0 257.5625 0 260.042969 0 262.527344 Z M 139.03125 373.390625 C 138.515625 370.652344 138.003906 367.828125 137.488281 365.085938 C 134.75 349.847656 132.097656 334.523438 129.269531 319.285156 C 128.414062 314.40625 127.046875 309.613281 124.476562 305.417969 C 121.222656 300.109375 114.886719 298.910156 111.292969 305.332031 C 110.265625 307.214844 109.238281 309.011719 108.554688 310.980469 C 105.214844 320.398438 105.558594 330.15625 105.644531 339.917969 C 105.726562 351.21875 106.414062 362.605469 101.789062 373.476562 C 104.015625 373.476562 106.242188 373.476562 108.46875 373.476562 C 112.0625 362.261719 112.148438 350.617188 111.890625 339.0625 C 111.722656 333.496094 111.890625 327.933594 112.234375 322.367188 C 112.578125 317.660156 113.859375 313.207031 116.171875 309.011719 C 117.285156 307.042969 118.398438 307.214844 119.339844 308.925781 C 120.109375 310.296875 120.625 311.835938 121.222656 313.292969 C 124.046875 321.253906 124.90625 329.558594 126.359375 337.777344 C 128.5 349.675781 130.210938 361.578125 133.039062 373.304688 C 135.09375 373.390625 137.0625 373.390625 139.03125 373.390625 Z M 339.101562 1.5 C 335.503906 11.6875 335.25 22.476562 333.964844 33.089844 C 332.851562 42.082031 328.144531 46.875 318.898438 48.160156 C 311.019531 49.273438 303.316406 48.585938 297.410156 41.996094 C 293.640625 37.714844 293.640625 34.203125 297.496094 29.925781 C 300.832031 26.328125 305.199219 24.1875 309.222656 21.621094 C 316.757812 16.824219 321.980469 10.492188 323.519531 1.5 C 321.550781 1.5 319.582031 1.5 317.613281 1.5 C 315.214844 8.949219 310.25 14.171875 303.402344 17.851562 C 300.234375 19.566406 297.324219 21.621094 294.582031 23.929688 C 286.28125 31.121094 286.28125 40.96875 294.582031 48.160156 C 299.464844 52.441406 305.285156 54.238281 311.535156 54.664062 C 325.144531 55.519531 338.332031 50.300781 340.386719 34.117188 C 341.839844 23.160156 342.011719 12.03125 345.863281 1.5 C 343.550781 1.5 341.328125 1.5 339.101562 1.5 Z M 361.445312 1.5 C 360.503906 5.097656 359.902344 8.691406 359.902344 12.460938 C 359.902344 16.570312 360.160156 20.59375 361.273438 24.53125 C 363.757812 33.863281 361.445312 41.910156 355.453125 49.441406 C 351.257812 54.75 347.0625 60.144531 344.921875 66.652344 C 341.328125 77.523438 345.863281 87.96875 355.625 91.136719 C 361.1875 92.933594 366.496094 91.820312 371.804688 90.023438 C 371.804688 87.796875 371.804688 85.570312 371.804688 83.34375 C 369.664062 84.03125 367.609375 84.800781 365.46875 85.3125 C 358.105469 87.113281 351.34375 83.34375 350.316406 76.753906 C 349.714844 72.816406 350.058594 68.875 352.199219 65.28125 C 354.511719 61.171875 357.25 57.40625 360.074219 53.722656 C 367.007812 44.820312 370.347656 35.230469 367.4375 23.761719 C 365.554688 16.484375 365.46875 8.863281 368.035156 1.5 C 365.898438 1.5 363.671875 1.5 361.445312 1.5 Z M 179.953125 1.5 C 181.152344 4.070312 182.261719 6.636719 183.632812 9.121094 C 192.707031 26.414062 207.945312 30.953125 224.898438 21.449219 C 234.398438 16.054688 242.875 9.207031 250.582031 1.5 C 247.328125 1.5 244.160156 1.5 240.90625 1.5 C 233.203125 8.691406 225.070312 15.199219 214.964844 18.710938 C 206.234375 21.792969 198.699219 19.308594 193.136719 11.859375 C 190.738281 8.691406 188.683594 5.355469 187.398438 1.585938 C 184.917969 1.5 182.433594 1.5 179.953125 1.5 Z M 128.671875 1.5 C 123.964844 6.894531 117.457031 7.664062 110.949219 8.09375 C 104.699219 8.523438 98.707031 6.894531 92.714844 5.78125 C 88.007812 4.925781 83.382812 5.097656 78.761719 5.695312 C 76.191406 6.039062 73.539062 6.125 70.96875 5.867188 C 68.316406 5.695312 66.003906 4.582031 65.40625 1.5 C 62.921875 1.5 60.441406 1.5 57.957031 1.5 C 62.152344 10.832031 66.519531 13.144531 76.964844 12.03125 C 82.355469 11.433594 87.75 10.660156 93.144531 12.117188 C 99.90625 14 106.753906 14.515625 113.691406 14.085938 C 123.792969 13.488281 132.011719 9.292969 138.34375 1.5 C 135.09375 1.5 131.925781 1.5 128.671875 1.5 Z M 0 202.34375 C 7.875 204.3125 15.066406 207.734375 20.375 214.15625 C 22.773438 217.066406 24.742188 220.320312 23.542969 224.257812 C 22 229.394531 16.265625 231.105469 11.472656 228.109375 C 7.363281 225.542969 4.28125 221.691406 0 219.378906 C 0 222.117188 0 224.859375 0 227.597656 C 3.679688 230.164062 6.847656 233.589844 11.300781 235.214844 C 16.78125 237.269531 21.488281 236.074219 25.597656 232.304688 C 29.621094 228.625 31.246094 224.171875 29.964844 218.609375 C 28.507812 212.273438 24.484375 207.992188 19.605469 204.140625 C 13.78125 199.601562 6.761719 197.378906 0 194.808594 C 0 197.378906 0 199.859375 0 202.34375 Z M 207.519531 373.390625 C 212.910156 361.917969 222.242188 357.46875 234.058594 361.578125 C 241.589844 364.230469 248.867188 367.484375 256.488281 369.882812 C 258.285156 370.480469 260.253906 371.25 261.023438 373.390625 C 263.765625 373.390625 266.503906 373.390625 269.242188 373.390625 C 266.503906 367.828125 261.710938 364.828125 255.972656 363.03125 C 250.664062 361.40625 245.527344 359.523438 240.476562 357.210938 C 233.285156 353.871094 225.667969 352.417969 217.878906 355.15625 C 208.886719 358.238281 204.179688 365.601562 200.070312 373.476562 C 202.554688 373.390625 205.035156 373.390625 207.519531 373.390625 Z M 336.875 373.390625 C 339.527344 367.054688 340.128906 360.292969 341.242188 353.613281 C 343.980469 338.121094 356.820312 326.304688 371.804688 325.792969 C 371.804688 323.566406 371.804688 321.339844 371.804688 319.113281 C 367.265625 319.886719 362.558594 319.800781 358.191406 321.9375 C 344.835938 328.445312 337.816406 339.574219 334.648438 353.613281 C 333.109375 360.292969 333.363281 367.398438 329.425781 373.390625 C 331.910156 373.390625 334.390625 373.390625 336.875 373.390625 Z M 21.574219 1.5 C 21.402344 6.808594 22.859375 12.03125 22.34375 17.253906 C 22.171875 18.964844 22.429688 21.019531 20.375 21.535156 C 18.320312 21.960938 17.808594 19.90625 17.292969 18.453125 C 14.808594 11.945312 9.84375 7.066406 5.90625 1.5 C 0 1.5 0 1.5 0 5.953125 C 1.371094 6.210938 1.882812 7.410156 2.824219 8.179688 C 7.703125 12.546875 10.1875 18.625 13.613281 24.015625 C 15.410156 26.757812 18.0625 28.125 21.488281 27.785156 C 25.253906 27.355469 26.710938 24.53125 27.222656 21.449219 C 28.25 14.769531 29.023438 8.179688 27.480469 1.5 C 25.511719 1.5 23.542969 1.5 21.574219 1.5 Z M 0 21.621094 C 6.847656 29.582031 9.074219 38.65625 6.675781 48.84375 C 5.820312 52.441406 3.851562 55.4375 0 56.546875 C 0 58.773438 0 61 0 63.226562 C 11.644531 60.402344 14.808594 47.644531 13.867188 38.742188 C 12.671875 28.296875 8.132812 19.480469 0 12.632812 C 0 15.628906 0 18.625 0 21.621094 Z M 0 114.507812 C 2.140625 121.183594 2.3125 127.863281 0 134.625 C 0 141.558594 0 148.492188 0 155.429688 C 5.394531 145.667969 7.960938 135.140625 8.046875 124.179688 C 8.132812 115.191406 6.25 106.628906 0 99.695312 C 0 104.660156 0 109.625 0 114.507812 Z M 351 373.390625 C 351.941406 368.9375 353.484375 364.660156 355.195312 360.464844 C 356.050781 358.324219 357.507812 356.527344 360.074219 356.527344 C 362.816406 356.527344 363.242188 358.921875 363.84375 360.890625 C 365.125 365.34375 367.4375 369.367188 369.664062 373.390625 C 370.863281 373.390625 372.316406 373.90625 371.976562 371.507812 C 371.632812 368.9375 371.890625 366.285156 371.890625 363.71875 C 370.007812 361.664062 369.921875 358.835938 368.808594 356.441406 C 366.324219 350.703125 360.417969 348.648438 355.109375 351.730469 C 352.710938 353.1875 351 355.15625 349.714844 357.722656 C 347.320312 362.691406 346.378906 368.253906 344.324219 373.390625 C 346.546875 373.390625 348.773438 373.390625 351 373.390625 Z M 170.277344 373.390625 C 169.078125 371.507812 167.796875 369.710938 166.769531 367.828125 C 166.253906 366.882812 166.167969 365.601562 167.195312 364.746094 C 168.050781 364.058594 169.078125 364.316406 169.9375 364.914062 C 174.042969 367.65625 178.582031 369.023438 183.375 369.625 C 185.601562 369.882812 186.972656 371.164062 187.3125 373.390625 C 189.285156 373.390625 191.253906 373.390625 193.222656 373.390625 C 193.222656 369.109375 190.824219 366.199219 186.972656 365.171875 C 180.808594 363.546875 174.816406 361.492188 168.992188 358.835938 C 166.9375 357.894531 164.371094 357.808594 162.402344 359.777344 C 160.433594 361.832031 160.003906 364.230469 161.03125 366.96875 C 161.800781 369.109375 162.660156 371.25 163.515625 373.390625 C 165.828125 373.390625 168.050781 373.390625 170.277344 373.390625 Z M 297.496094 1.5 C 297.238281 3.726562 295.953125 5.355469 294.582031 6.980469 C 292.699219 9.207031 290.21875 9.890625 287.734375 8.09375 C 284.996094 6.210938 282.253906 4.328125 280.371094 1.5 C 276.863281 1.5 273.4375 1.5 269.929688 1.5 C 273.351562 4.496094 276.777344 7.496094 280.199219 10.578125 C 286.449219 16.140625 292.613281 17.082031 297.410156 13.058594 C 301.089844 10.0625 303.144531 6.039062 304.171875 1.5 C 301.945312 1.5 299.71875 1.5 297.496094 1.5 Z M 371.890625 194.894531 C 368.207031 190.441406 369.835938 185.992188 371.890625 181.539062 C 371.890625 176.574219 371.890625 171.609375 371.890625 166.644531 C 369.148438 171.007812 366.667969 175.546875 364.953125 180.339844 C 361.101562 191.042969 362.984375 197.292969 371.890625 204.566406 C 371.890625 201.316406 371.890625 198.0625 371.890625 194.894531 Z M 243.21875 373.390625 C 240.222656 370.824219 236.539062 369.539062 232.859375 369.109375 C 227.722656 368.511719 222.585938 369.023438 218.734375 373.390625 C 226.867188 373.390625 235 373.390625 243.21875 373.390625 Z M 0 324.25 C 1.199219 318.773438 1.199219 313.378906 0 307.898438 C 0 313.378906 0 318.773438 0 324.25 Z M 302.546875 145.753906 C 318.898438 144.128906 331.140625 133.167969 331.738281 115.621094 C 332.167969 103.804688 328.398438 93.191406 322.40625 83.429688 C 311.277344 65.023438 294.242188 54.324219 274.378906 47.816406 C 262.90625 44.050781 251.265625 42.082031 239.023438 44.390625 C 223.613281 47.386719 209.660156 53.382812 196.902344 62.542969 C 191.507812 66.394531 185.429688 68.875 178.753906 69.304688 C 167.28125 69.902344 158.976562 64.425781 152.214844 55.777344 C 146.394531 48.414062 140.144531 41.308594 131.839844 36.515625 C 118.996094 28.898438 105.300781 30.4375 95.027344 40.367188 C 85.78125 49.441406 84.925781 60.574219 92.457031 74.269531 C 93.65625 76.410156 94.769531 78.636719 95.625 80.949219 C 97.507812 86 96.054688 89.25 91.089844 91.390625 C 88.949219 92.332031 86.722656 93.105469 84.496094 93.875 C 75.59375 97.128906 67.375 101.492188 61.125 108.941406 C 52.050781 119.816406 50.765625 133.167969 58.128906 144.554688 C 66.347656 157.054688 83.8125 166.730469 101.363281 154.230469 C 107.011719 150.207031 112.664062 146.269531 118.742188 142.929688 C 134.578125 134.367188 148.277344 136.765625 160.347656 150.121094 C 166.082031 156.457031 171.390625 163.132812 178.925781 167.585938 C 190.652344 174.433594 202.894531 173.234375 212.484375 163.730469 C 216.25 159.964844 219.761719 155.941406 223.183594 151.832031 C 234.484375 138.390625 248.269531 134.027344 265.21875 139.589844 C 275.492188 142.929688 285.9375 146.183594 296.980469 145.839844 C 298.777344 145.753906 300.660156 145.925781 302.546875 145.753906 Z M 266.160156 133.511719 C 254.605469 130.257812 243.390625 129.488281 232.601562 135.910156 C 226.4375 139.589844 221.386719 144.382812 216.851562 149.863281 C 214.28125 152.859375 211.714844 155.941406 208.972656 158.765625 C 201.695312 166.386719 192.621094 167.671875 183.289062 162.789062 C 175.242188 158.597656 170.105469 151.320312 164.113281 144.898438 C 154.613281 134.710938 143.226562 129.746094 129.183594 132.484375 C 121.308594 134.027344 114.460938 138.050781 107.867188 142.414062 C 104.1875 144.898438 100.589844 147.464844 96.824219 149.863281 C 86.894531 156.285156 78.160156 155.429688 68.832031 147.210938 C 52.480469 132.914062 59.242188 114.933594 75.078125 104.917969 C 80.558594 101.492188 86.722656 99.78125 92.714844 97.382812 C 101.703125 93.789062 104.699219 86.941406 101.105469 77.953125 C 99.820312 74.785156 98.023438 71.789062 96.566406 68.621094 C 91.945312 59.203125 92.628906 52.183594 98.792969 45.417969 C 105.214844 38.398438 114.632812 36.003906 123.449219 39.171875 C 132.183594 42.335938 138.34375 48.757812 144.167969 55.519531 C 148.449219 60.488281 152.300781 65.878906 157.863281 69.476562 C 169.164062 76.925781 180.894531 77.4375 192.964844 71.445312 C 196.558594 69.734375 199.898438 67.679688 203.152344 65.453125 C 216.851562 56.207031 231.832031 50.726562 248.355469 49.613281 C 259.054688 48.84375 269.15625 51.925781 278.917969 55.777344 C 298.863281 63.738281 314.53125 76.410156 322.492188 97.042969 C 325.316406 104.320312 326.945312 111.851562 325.230469 119.816406 C 322.578125 131.628906 313.675781 139.246094 301.433594 139.761719 C 300.0625 139.847656 298.691406 139.761719 297.324219 139.761719 C 286.363281 140.105469 276.347656 136.421875 266.160156 133.511719 Z M 260.339844 263.980469 C 256.828125 263.554688 253.660156 262.613281 252.121094 258.84375 C 250.582031 255.078125 251.777344 252.167969 254.347656 249.511719 C 256.316406 247.375 258.628906 245.746094 261.109375 244.375 C 275.921875 235.988281 281.65625 223.144531 279.6875 206.453125 C 277.890625 191.382812 264.191406 182.738281 249.980469 187.960938 C 241.761719 190.957031 235.339844 196.433594 229.261719 202.511719 C 224.984375 206.792969 221.300781 211.675781 216.59375 215.527344 C 209.660156 221.089844 204.351562 221.433594 197.246094 216.125 C 193.222656 213.128906 189.367188 209.703125 185.34375 206.707031 C 178.070312 201.402344 170.191406 200.289062 161.972656 204.226562 C 157.09375 206.539062 152.984375 209.960938 149.730469 214.242188 C 138.261719 229.308594 139.117188 253.621094 151.53125 268.691406 C 155.039062 272.886719 158.550781 276.996094 161.972656 281.273438 C 169.078125 290.265625 171.304688 300.109375 166.769531 311.066406 C 164.882812 315.777344 162.914062 320.398438 161.375 325.191406 C 156.667969 339.832031 164.714844 354.640625 179.179688 358.324219 C 186.800781 360.292969 194.078125 359.265625 201.269531 356.613281 C 209.316406 353.613281 216.421875 348.90625 223.957031 344.96875 C 232.6875 340.34375 241.417969 339.316406 250.324219 344.371094 C 252.550781 345.652344 255.03125 346.59375 257.34375 347.707031 C 272.238281 354.640625 283.199219 349.675781 287.90625 334.011719 C 290.046875 326.820312 289.445312 319.542969 289.277344 312.265625 C 289.191406 307.984375 290.644531 304.730469 293.726562 301.820312 C 298.007812 297.882812 302.972656 295.316406 308.109375 292.832031 C 311.792969 291.035156 315.300781 288.808594 317.441406 285.210938 C 320.351562 280.246094 319.410156 273.828125 315.042969 268.777344 C 306.824219 259.359375 296.039062 258.84375 284.738281 260.386719 C 277.289062 261.414062 270.183594 264.152344 262.566406 264.410156 C 261.796875 264.066406 261.109375 264.066406 260.339844 263.980469 Z M 169.9375 320.398438 C 172.246094 314.40625 175.070312 308.585938 175.5 302.078125 C 176.441406 290.179688 170.878906 280.933594 163.429688 272.457031 C 157.4375 265.523438 151.359375 258.757812 149.132812 249.429688 C 145.964844 236.414062 149.558594 219.378906 161.886719 211.503906 C 168.308594 207.394531 174.214844 207.050781 180.550781 211.332031 C 184.234375 213.8125 187.570312 216.726562 191.082031 219.550781 C 202.554688 228.796875 211.882812 228.539062 222.671875 218.609375 C 228.492188 213.214844 233.285156 206.792969 239.363281 201.742188 C 242.960938 198.746094 246.8125 196.007812 251.179688 194.210938 C 261.710938 190.015625 270.957031 195.152344 272.925781 206.453125 C 275.40625 220.234375 270.613281 230.765625 258.542969 238.128906 C 255.117188 240.183594 251.777344 242.320312 249.210938 245.402344 C 245.1875 250.285156 243.472656 255.675781 246.214844 261.925781 C 249.125 268.519531 254.859375 270.316406 261.367188 270.574219 C 269.5 270.914062 277.035156 267.75 284.996094 266.550781 C 292.785156 265.4375 300.578125 264.835938 307.339844 270.058594 C 308.367188 270.914062 309.394531 271.859375 310.25 272.886719 C 314.015625 277.851562 313.332031 281.789062 308.023438 284.957031 C 303.574219 287.609375 298.863281 289.835938 294.496094 292.574219 C 289.191406 295.914062 284.652344 300.109375 283.113281 306.53125 C 282.253906 310.296875 282.769531 314.148438 282.855469 318 C 283.113281 324.335938 282.597656 330.585938 279.773438 336.40625 C 276.605469 343 271.554688 345.140625 264.535156 343 C 259.910156 341.542969 255.632812 339.316406 251.351562 337.261719 C 241.078125 332.382812 231.230469 333.410156 221.558594 338.546875 C 215.050781 341.972656 208.632812 345.652344 201.953125 348.90625 C 195.789062 351.988281 189.199219 353.359375 182.179688 351.988281 C 172.761719 350.019531 166.683594 342.742188 166.597656 333.15625 C 166.339844 328.53125 168.308594 324.59375 169.9375 320.398438 Z M 13.441406 364.058594 C 18.664062 372.191406 25.511719 372.621094 30.5625 364.488281 C 37.496094 353.1875 47.171875 345.398438 58.8125 339.660156 C 62.582031 337.777344 66.175781 335.464844 68.746094 332.042969 C 75.9375 322.539062 78.589844 312.523438 72.082031 301.480469 C 68.574219 295.484375 68.230469 289.40625 70.886719 283.074219 C 72.769531 278.621094 74.136719 273.996094 74.824219 269.289062 C 75.507812 264.667969 74.996094 260.300781 71.054688 257.132812 C 67.203125 254.050781 63.007812 254.5625 58.8125 256.617188 C 55.304688 258.332031 52.222656 260.472656 49.484375 263.210938 C 46.144531 266.636719 42.207031 269.03125 37.753906 270.832031 C 31.761719 273.226562 25.253906 273.742188 19.175781 275.796875 C 7.019531 279.90625 1.796875 291.546875 8.21875 301.394531 C 12.070312 307.300781 12.328125 313.292969 11.300781 319.800781 C 10.015625 327.675781 7.789062 335.464844 8.046875 343.597656 C 8.21875 351.902344 9.929688 358.582031 13.441406 364.058594 Z M 17.464844 321.339844 C 18.917969 313.722656 18.835938 306.445312 14.554688 299.59375 C 9.503906 291.460938 12.5 284.183594 21.746094 281.445312 C 24.914062 280.503906 28.25 279.992188 31.503906 279.304688 C 41.179688 277.421875 48.882812 272.027344 55.902344 265.4375 C 57.785156 263.640625 59.925781 262.183594 62.410156 261.414062 C 65.917969 260.214844 67.886719 261.5 68.402344 265.179688 C 68.832031 268.347656 68.058594 271.34375 67.203125 274.253906 C 66.347656 276.996094 65.578125 279.734375 64.550781 282.386719 C 61.46875 290.179688 62.582031 297.539062 66.347656 304.816406 C 71.914062 315.519531 68.488281 326.820312 58.042969 332.984375 C 53.507812 335.722656 48.796875 338.289062 44.261719 341.03125 C 35.957031 345.996094 30.476562 353.613281 25.253906 361.40625 C 22.859375 365 21.488281 364.914062 19.003906 361.320312 C 15.410156 356.183594 14.382812 350.277344 14.125 345.054688 C 14.554688 336.320312 16.09375 328.875 17.464844 321.339844 Z M 73.625 235.816406 C 77.90625 252.59375 96.3125 258.757812 109.667969 247.886719 C 116.429688 242.40625 118.828125 234.617188 120.367188 226.570312 C 121.992188 218.007812 126.445312 212.1875 134.664062 209.277344 C 136.546875 208.59375 138.34375 207.992188 140.230469 207.308594 C 148.105469 204.566406 155.46875 200.886719 160.859375 194.125 C 164.882812 189.160156 166.9375 183.59375 165.484375 177.257812 C 161.289062 158.425781 148.449219 152.175781 131.839844 152.945312 C 115.230469 153.714844 102.988281 162.789062 94.683594 176.574219 C 87.066406 189.328125 81.328125 203.199219 75.25 216.808594 C 73.625 220.40625 72.511719 224.257812 72.855469 228.367188 C 72.683594 230.9375 73.023438 233.417969 73.625 235.816406 Z M 158.636719 176.144531 C 160.347656 181.625 159.320312 186.589844 155.46875 190.957031 C 150.332031 196.691406 143.738281 200.03125 136.546875 202 C 122.078125 205.851562 115.574219 216.039062 113.089844 229.824219 C 111.976562 236.074219 108.808594 241.125 103.589844 244.71875 C 95.285156 250.457031 83.8125 245.746094 80.300781 235.386719 C 78.332031 229.566406 78.933594 223.832031 81.414062 218.4375 C 87.320312 205.679688 92.972656 192.753906 99.820312 180.511719 C 107.011719 167.671875 118.484375 160.136719 131.070312 159.109375 C 146.90625 159.109375 155.039062 164.675781 158.636719 176.144531 Z M 191.082031 178.542969 C 186.714844 178.886719 182.691406 180.082031 180.980469 184.621094 C 179.4375 188.472656 181.492188 193.867188 185.429688 196.777344 C 189.96875 200.117188 195.191406 201.570312 200.753906 201.144531 C 210.773438 200.289062 219.847656 196.691406 228.148438 191.042969 C 238.59375 183.9375 249.808594 178.714844 262.824219 179.054688 C 269.070312 179.226562 274.636719 182.480469 280.800781 183.335938 C 285.679688 183.9375 290.472656 184.109375 294.667969 180.941406 C 299.550781 177.257812 301.519531 172.207031 300.234375 166.214844 C 298.949219 159.878906 293.898438 155.769531 286.792969 154.65625 C 274.636719 152.859375 262.652344 154.402344 250.664062 156.457031 C 239.878906 158.253906 230.375 162.363281 222.242188 169.726562 C 214.878906 176.316406 206.148438 179.140625 196.304688 178.457031 C 194.589844 178.542969 192.792969 178.457031 191.082031 178.542969 Z M 285.335938 160.734375 C 289.277344 161.25 292.441406 163.046875 293.726562 166.984375 C 295.609375 172.464844 291.671875 177.257812 285.335938 177.34375 C 281.484375 177.34375 277.71875 176.488281 274.121094 175.117188 C 261.710938 170.324219 249.894531 173.0625 238.339844 178.027344 C 232.429688 180.597656 227.039062 184.109375 221.644531 187.53125 C 214.625 192.070312 206.832031 194.636719 198.359375 194.722656 C 195.105469 194.722656 192.023438 193.609375 189.367188 191.640625 C 187.828125 190.527344 186.628906 188.816406 187.058594 186.933594 C 187.570312 184.792969 189.710938 184.964844 191.339844 184.878906 C 196.476562 184.535156 201.695312 184.707031 206.746094 184.023438 C 214.539062 182.996094 220.875 178.714844 227.039062 174.003906 C 237.226562 166.214844 248.527344 161.164062 261.539062 160.480469 C 265.648438 160.308594 269.671875 159.964844 273.953125 159.625 C 277.71875 160.050781 281.484375 160.222656 285.335938 160.734375 Z M 17.121094 162.019531 C 20.289062 165.015625 24.226562 166.472656 28.164062 167.925781 C 37.410156 171.265625 45.457031 176.230469 51.878906 183.765625 C 53.761719 185.992188 55.902344 188.214844 58.214844 190.015625 C 65.320312 195.578125 73.882812 193.097656 75.679688 184.964844 C 76.792969 180.082031 74.824219 176.058594 71.65625 172.464844 C 67.71875 168.011719 63.179688 164.246094 58.472656 160.566406 C 52.394531 155.769531 47.683594 150.292969 47.257812 141.902344 C 47 137.023438 46.484375 132.058594 44.515625 127.519531 C 42.207031 121.953125 37.496094 119.644531 31.675781 121.269531 C 21.574219 123.921875 12.414062 137.449219 12.414062 150.632812 C 12.242188 154.488281 13.613281 158.679688 17.121094 162.019531 Z M 29.277344 128.804688 C 34.757812 125.378906 37.925781 126.664062 39.464844 132.828125 C 40.40625 136.59375 40.75 140.359375 41.09375 144.128906 C 41.949219 153.886719 47.941406 160.222656 55.046875 165.871094 C 58.898438 168.953125 62.753906 172.035156 66.089844 175.71875 C 67.71875 177.601562 69.34375 179.484375 69.601562 182.054688 C 69.941406 185.734375 67.375 187.445312 63.863281 186.078125 C 62.152344 185.390625 60.867188 184.277344 59.839844 182.910156 C 51.28125 172.378906 40.40625 165.273438 27.566406 160.992188 C 20.972656 158.765625 18.492188 155 18.664062 149.007812 C 19.863281 141.558594 21.574219 133.683594 29.277344 128.804688 Z M 198.015625 53.296875 C 202.980469 49.441406 204.777344 44.050781 203.582031 38.144531 C 202.46875 32.492188 198.1875 29.410156 192.707031 28.382812 C 186.800781 27.269531 182.347656 24.789062 180.125 18.878906 C 179.609375 17.425781 178.582031 16.054688 177.640625 14.769531 C 173.960938 9.71875 168.136719 7.664062 162.746094 9.550781 C 152.898438 12.886719 145.707031 26.328125 148.449219 36.257812 C 151.871094 48.5 161.289062 58.773438 174.644531 58.945312 C 184.234375 59.460938 191.679688 58.261719 198.015625 53.296875 Z M 154.527344 33.519531 C 153.070312 27.613281 157.523438 19.136719 162.914062 16.226562 C 167.453125 13.742188 171.90625 15.457031 174.644531 20.847656 C 175.5 22.476562 176.015625 24.273438 176.699219 25.984375 C 178.238281 29.753906 180.980469 32.234375 184.832031 33.433594 C 187.398438 34.289062 189.96875 35.144531 192.535156 36.003906 C 198.101562 38.058594 199.300781 42.335938 195.363281 46.875 C 191.59375 51.15625 186.371094 52.183594 181.066406 52.695312 C 180.292969 52.78125 179.609375 52.695312 178.839844 52.695312 C 166.082031 52.953125 157.695312 46.445312 154.527344 33.519531 Z M 251.351562 10.746094 C 244.417969 15.96875 236.625 19.652344 228.75 23.246094 C 225.753906 24.617188 222.929688 26.414062 220.789062 29.238281 C 217.535156 33.605469 218.988281 38.3125 224.125 40.113281 C 228.578125 41.738281 232.6875 40.199219 236.796875 38.914062 C 242.363281 37.199219 247.839844 37.117188 253.578125 37.457031 C 259.226562 37.886719 264.363281 40.027344 269.84375 40.796875 C 279.257812 42.082031 284.566406 35.832031 281.742188 26.84375 C 278.574219 16.398438 268.730469 8.179688 259.484375 8.179688 C 256.574219 8.007812 253.746094 9.035156 251.351562 10.746094 Z M 268.300781 18.023438 C 271.382812 20.765625 273.78125 24.015625 275.234375 27.957031 C 276.007812 30.007812 277.546875 32.0625 275.578125 34.117188 C 273.609375 36.257812 271.125 35.832031 268.730469 34.890625 C 264.535156 33.261719 260.253906 32.40625 255.886719 31.722656 C 248.527344 30.609375 241.417969 31.035156 234.3125 33.175781 C 232.175781 33.777344 230.035156 34.546875 227.808594 34.203125 C 227.207031 34.117188 226.523438 34.375 226.265625 33.605469 C 226.09375 32.921875 226.523438 32.492188 226.953125 32.0625 C 229.175781 30.007812 231.832031 28.726562 234.570312 27.527344 C 240.992188 24.703125 247.328125 21.621094 252.890625 17.339844 C 254.945312 15.714844 257.171875 14.429688 259.398438 14.601562 C 263.25 14.601562 265.988281 15.882812 268.300781 18.023438 Z M 371.03125 263.640625 C 370.519531 261.414062 369.320312 259.617188 367.609375 258.074219 C 363.15625 253.964844 357.933594 251.226562 352.199219 249.597656 C 344.664062 247.457031 337.21875 248.058594 330.453125 252.082031 C 324.546875 255.589844 322.921875 261.585938 325.574219 268.175781 C 327.972656 273.914062 332.765625 276.394531 339.441406 274.511719 C 345.863281 272.628906 352.199219 271.859375 358.707031 273.742188 C 359.648438 273.996094 360.675781 273.742188 361.703125 273.742188 C 368.894531 273.914062 372.574219 269.972656 371.03125 263.640625 Z M 363.5 262.699219 C 364.355469 263.640625 365.554688 264.835938 364.871094 266.207031 C 364.183594 267.578125 362.644531 267.0625 361.53125 267.0625 C 360.417969 267.0625 359.304688 267.0625 358.191406 266.722656 C 351.769531 265.007812 345.605469 265.4375 339.359375 267.664062 C 334.992188 269.203125 333.023438 268.347656 331.738281 265.179688 C 330.28125 261.671875 331.226562 259.1875 334.992188 256.960938 C 337.988281 255.25 341.242188 254.308594 345.863281 254.308594 C 351.683594 254.992188 358.363281 257.046875 363.5 262.699219 Z M 345.519531 129.230469 C 347.746094 128.03125 349.546875 126.320312 350.914062 124.265625 C 354.425781 118.957031 356.566406 113.050781 357.59375 106.800781 C 358.789062 99.695312 350.65625 90.792969 343.636719 91.050781 C 338.332031 91.222656 333.878906 97.128906 335.164062 103.207031 C 336.359375 108.941406 336.019531 114.421875 334.390625 119.898438 C 334.136719 120.757812 334.136719 121.613281 334.050781 121.785156 C 334.136719 129.058594 339.699219 132.398438 345.519531 129.230469 Z M 345.09375 123.152344 C 343.980469 124.265625 342.695312 125.464844 340.898438 124.4375 C 339.101562 123.410156 339.527344 121.699219 339.785156 120.15625 C 339.957031 119.300781 340.214844 118.53125 340.640625 117.761719 C 342.609375 113.820312 343.210938 109.882812 341.414062 105.6875 C 341.070312 104.917969 340.898438 104.0625 340.726562 103.207031 C 340.300781 101.066406 340.726562 99.183594 342.523438 97.898438 C 344.410156 96.527344 346.035156 97.726562 347.574219 98.839844 C 350.316406 100.894531 351.683594 103.71875 351.683594 107.914062 C 350.914062 113.050781 349.546875 118.789062 345.09375 123.152344 Z M 134.664062 237.101562 C 134.40625 235.816406 133.550781 234.617188 132.609375 233.675781 C 129.527344 230.335938 124.648438 230.421875 122.59375 234.445312 C 119.855469 239.839844 116.515625 244.890625 114.117188 250.371094 C 111.636719 256.105469 114.03125 261.15625 119.769531 263.039062 C 123.191406 264.238281 126.789062 264.582031 130.296875 264.410156 C 135.433594 264.238281 138.261719 260.898438 138.34375 254.648438 C 137.316406 249.511719 136.121094 243.265625 134.664062 237.101562 Z M 122.679688 258.246094 C 119.167969 256.535156 118.054688 254.222656 119.769531 250.796875 C 121.824219 246.773438 124.820312 243.265625 126.960938 239.242188 C 127.988281 237.269531 129.785156 238.128906 129.957031 239.925781 C 130.554688 245.0625 131.667969 250.113281 132.953125 255.078125 C 133.636719 257.644531 131.582031 259.015625 127.472656 259.101562 C 126.101562 258.671875 124.304688 259.101562 122.679688 258.246094 Z M 324.632812 79.578125 C 327.886719 83.773438 331.652344 85.226562 335.503906 83.773438 C 339.015625 82.402344 341.242188 78.722656 340.386719 73.671875 C 339.699219 69.476562 340.386719 65.539062 341.496094 61.683594 C 342.441406 58.433594 342.441406 55.351562 339.527344 53.296875 C 336.445312 51.070312 333.023438 51.242188 329.769531 53.125 C 323.777344 56.632812 321.464844 62.285156 321.207031 66.90625 C 321.292969 73.242188 322.320312 76.582031 324.632812 79.578125 Z M 335.417969 59.714844 C 333.707031 65.109375 333.878906 70.589844 334.050781 76.152344 C 334.136719 77.953125 332.851562 78.550781 331.308594 77.351562 C 328.226562 74.871094 327.285156 71.53125 327.542969 67.765625 C 327.800781 63.484375 329.855469 60.316406 333.707031 58.433594 C 333.964844 58.347656 334.136719 58.261719 334.390625 58.175781 C 335.503906 58.089844 335.589844 59.03125 335.417969 59.714844 Z M 56.929688 46.359375 C 51.453125 40.710938 42.460938 42.335938 39.125 50.640625 C 35.355469 60.058594 30.648438 68.277344 23.714844 75.898438 C 17.550781 82.660156 20.375 91.5625 28.335938 95.160156 C 36.46875 98.753906 45.03125 96.527344 50.511719 89.507812 C 57.699219 80.089844 59.5 69.304688 60.355469 59.714844 C 60.355469 52.441406 59.328125 48.757812 56.929688 46.359375 Z M 32.875 89.9375 C 26.96875 88.480469 25.167969 83.171875 29.105469 78.464844 C 30.21875 77.179688 31.503906 75.980469 32.703125 74.699219 C 37.667969 69.390625 41.433594 63.398438 43.148438 56.292969 C 44.175781 52.011719 47.597656 48.414062 50.082031 49.273438 C 53.761719 50.46875 54.363281 54.238281 54.191406 57.234375 C 53.421875 67.335938 52.136719 77.351562 45.375 85.65625 C 42.976562 88.566406 40.152344 90.535156 36.214844 90.363281 C 35.101562 90.195312 33.988281 90.195312 32.875 89.9375 Z M 322.921875 24.101562 C 320.09375 22.476562 317.097656 22.902344 314.617188 24.957031 C 311.707031 27.269531 308.625 29.152344 305.285156 30.867188 C 302.460938 32.320312 300.0625 34.632812 300.746094 38.144531 C 301.519531 41.910156 304.34375 43.964844 308.023438 44.5625 C 314.617188 45.675781 322.234375 42.167969 325.746094 36.429688 C 326.6875 34.976562 327.285156 33.347656 327.199219 31.292969 C 327.714844 27.957031 325.746094 25.644531 322.921875 24.101562 Z M 307.851562 38.144531 C 307.253906 36.429688 308.710938 36.089844 309.738281 35.574219 C 312.476562 34.203125 315.128906 32.664062 317.441406 30.609375 C 318.296875 29.839844 319.410156 29.324219 320.4375 30.179688 C 321.550781 31.121094 321.378906 32.40625 320.609375 33.519531 C 318.296875 37.03125 315.128906 39.085938 311.875 39.511719 C 309.820312 39.511719 308.453125 39.597656 307.851562 38.144531 Z M 286.535156 118.1875 C 297.496094 117.074219 304.171875 109.371094 302.546875 99.523438 C 300.148438 85.058594 291.417969 75.46875 277.632812 71.617188 C 262.308594 67.335938 246.472656 68.105469 231.230469 72.730469 C 217.191406 76.925781 203.496094 82.0625 189.539062 86.511719 C 177.554688 90.363281 166.167969 89.421875 155.894531 81.375 C 153.242188 79.320312 150.585938 77.351562 147.847656 75.382812 C 141.257812 70.589844 134.835938 65.453125 126.703125 63.484375 C 120.367188 61.941406 115.832031 65.023438 114.289062 71.273438 C 113.261719 75.296875 114.71875 78.808594 115.660156 82.488281 C 117.457031 89.25 116.941406 90.878906 111.378906 95.160156 C 106.753906 98.753906 102.21875 102.265625 99.394531 107.574219 C 94.085938 117.503906 99.308594 126.148438 110.523438 126.492188 C 116.429688 126.664062 121.136719 123.839844 126.1875 121.613281 C 130.128906 119.898438 133.894531 117.589844 138.429688 117.929688 C 148.449219 118.53125 156.921875 121.871094 162.488281 130.859375 C 165.226562 135.222656 168.480469 139.246094 172.761719 142.414062 C 183.207031 150.207031 192.792969 149.265625 201.527344 139.589844 C 204.4375 136.421875 207.347656 133.167969 210.601562 130.34375 C 218.734375 123.152344 227.980469 118.445312 239.195312 117.929688 C 250.324219 117.417969 261.367188 118.617188 273.867188 118.789062 C 277.203125 119.214844 281.828125 118.703125 286.535156 118.1875 Z M 249.46875 111.511719 C 228.066406 109.96875 211.371094 118.445312 197.757812 134.453125 C 191.253906 142.160156 186.628906 143.1875 179.097656 139.164062 C 176.183594 137.621094 173.789062 135.480469 171.734375 133 C 170.105469 131.03125 168.566406 128.890625 167.109375 126.75 C 158.890625 114.335938 144.851562 110.484375 131.324219 113.394531 C 126.273438 114.507812 121.910156 116.902344 117.285156 118.871094 C 114.03125 120.242188 110.777344 121.183594 107.269531 119.816406 C 104.273438 118.617188 102.816406 116.902344 103.757812 113.222656 C 105.042969 108.257812 108.722656 105.433594 112.148438 102.265625 C 113.003906 101.492188 113.945312 100.894531 114.804688 100.210938 C 122.679688 94.132812 124.046875 90.277344 121.480469 80.691406 C 120.882812 78.464844 120.109375 76.238281 120.195312 73.84375 C 120.367188 69.988281 121.992188 68.792969 125.761719 69.648438 C 130.554688 70.761719 134.492188 73.585938 138.515625 76.238281 C 143.054688 79.40625 147.589844 82.660156 151.957031 86.085938 C 163.855469 95.332031 177.042969 96.871094 191.082031 92.332031 C 205.121094 87.796875 218.988281 82.660156 233.117188 78.378906 C 246.8125 74.269531 260.851562 74.097656 274.894531 77.007812 C 286.023438 79.320312 295.695312 90.535156 296.039062 100.894531 C 296.210938 107.144531 294.070312 109.796875 287.90625 111.253906 C 282.253906 112.539062 276.605469 111.9375 270.871094 112.109375 C 263.765625 112.792969 256.660156 112.023438 249.46875 111.511719 Z M 172.589844 247.117188 C 171.992188 253.109375 173.703125 258.332031 177.726562 262.78125 C 181.835938 267.40625 185.859375 272.113281 189.199219 277.335938 C 192.449219 282.558594 195.703125 288.039062 194.933594 294.542969 C 194.335938 299.679688 191.167969 303.875 188.941406 308.414062 C 186.457031 313.378906 184.234375 318.429688 184.488281 324.25 C 184.832031 331.101562 188.425781 335.550781 194.25 338.460938 C 199.8125 341.203125 205.035156 340.089844 209.828125 336.320312 C 213.253906 333.582031 215.136719 329.816406 217.191406 326.21875 C 220.445312 320.65625 224.210938 318.941406 230.460938 320.484375 C 233.800781 321.339844 237.226562 322.109375 240.476562 323.136719 C 243.816406 324.25 247.242188 324.507812 250.75 324.335938 C 256.742188 323.910156 261.796875 319.199219 261.878906 313.464844 C 262.050781 307.128906 265.046875 303.105469 270.355469 300.195312 C 273.523438 298.480469 276.605469 296.683594 279.089844 294.03125 C 281.144531 291.890625 282.941406 289.320312 281.570312 286.070312 C 280.117188 282.730469 277.035156 282.214844 273.867188 282.128906 C 273.011719 282.128906 272.152344 282.300781 271.382812 282.558594 C 260.253906 286.070312 249.980469 283.929688 240.222656 278.023438 C 236.285156 275.625 233.800781 272.457031 232.945312 267.917969 C 231.917969 262.867188 233.886719 258.417969 235.597656 253.964844 C 237.824219 248.058594 240.394531 242.320312 240.648438 235.902344 C 240.992188 227.941406 235.855469 224.257812 228.148438 226.054688 C 222.671875 227.339844 219.246094 231.191406 215.824219 235.132812 C 212.054688 239.496094 207.773438 240.78125 202.382812 238.296875 C 198.1875 236.414062 193.648438 235.730469 189.027344 235.902344 C 179.523438 235.730469 173.273438 240.183594 172.589844 247.117188 Z M 266.675781 294.457031 C 259.742188 298.226562 255.800781 303.875 255.203125 311.835938 C 254.859375 316.03125 252.890625 317.660156 248.695312 317.746094 C 243.390625 317.832031 238.59375 315.519531 233.628906 314.320312 C 229.691406 313.378906 225.925781 313.292969 221.988281 314.492188 C 216.933594 315.945312 213.339844 319.027344 210.941406 323.652344 C 209.660156 326.046875 208.375 328.445312 206.492188 330.414062 C 203.921875 332.984375 201.011719 334.351562 197.503906 332.8125 C 193.734375 331.183594 191.339844 328.445312 191.082031 324.078125 C 190.738281 318.6875 193.308594 314.320312 195.617188 309.78125 C 198.273438 304.476562 201.527344 299.425781 201.609375 293.261719 C 201.695312 285.210938 197.84375 278.621094 193.648438 272.113281 C 190.226562 266.976562 186.03125 262.441406 182.09375 257.644531 C 180.464844 255.589844 179.265625 253.367188 179.179688 250.625 C 179.011719 245.402344 181.234375 242.75 186.457031 242.40625 C 190.824219 242.152344 195.019531 242.492188 199.214844 244.035156 C 209.316406 247.714844 214.878906 246.175781 221.730469 237.957031 C 223.613281 235.730469 225.496094 233.675781 228.234375 232.648438 C 232.601562 231.023438 234.3125 232.390625 233.800781 236.929688 C 233.03125 243.265625 230.121094 248.914062 227.980469 254.820312 C 225.324219 262.269531 224.726562 269.460938 229.09375 276.480469 C 230.203125 278.277344 231.402344 279.992188 233.203125 281.1875 C 244.585938 288.894531 256.660156 293.261719 270.527344 289.238281 C 271.726562 288.894531 272.839844 288.210938 274.550781 289.152344 C 272.066406 291.546875 269.328125 293.003906 266.675781 294.457031 Z M 28.851562 338.035156 C 32.445312 339.488281 35.269531 337.691406 37.753906 335.125 C 38.867188 334.011719 40.066406 332.898438 41.007812 331.613281 C 43.832031 327.933594 47.34375 325.019531 51.367188 322.796875 C 61.296875 317.488281 61.296875 308.753906 56.417969 300.964844 C 54.617188 298.140625 53.761719 295.230469 54.617188 291.890625 C 55.21875 289.492188 55.390625 287.011719 55.644531 284.613281 C 55.902344 281.53125 55.476562 278.449219 52.308594 277.078125 C 49.226562 275.710938 46.230469 277.078125 44.175781 279.132812 C 40.664062 282.558594 36.382812 284.269531 31.933594 285.726562 C 30.304688 286.238281 28.679688 286.839844 27.136719 287.609375 C 18.917969 291.632812 17.636719 297.710938 23.714844 304.476562 C 27.222656 308.328125 27.738281 312.609375 27.050781 317.574219 C 26.453125 321.683594 24.914062 325.707031 25.167969 330.242188 C 25.082031 333.238281 25.339844 336.578125 28.851562 338.035156 Z M 33.558594 315.003906 C 33.816406 309.355469 32.53125 304.390625 28.507812 300.109375 C 25.339844 296.769531 25.683594 294.972656 29.964844 293.261719 C 36.214844 290.691406 41.949219 287.609375 47.429688 283.671875 C 48.027344 283.242188 48.796875 282.300781 49.738281 283.15625 C 50.511719 283.84375 50.082031 284.785156 49.824219 285.640625 C 47.511719 293.003906 48.113281 299.851562 52.308594 306.53125 C 55.046875 310.808594 54.105469 313.976562 49.824219 316.546875 C 43.660156 320.226562 38.523438 324.9375 33.988281 330.328125 C 33.472656 330.929688 32.960938 331.957031 31.933594 331.613281 C 30.90625 331.355469 31.503906 330.328125 31.332031 329.816406 C 31.933594 324.765625 33.300781 319.96875 33.558594 315.003906 Z M 87.835938 229.480469 C 89.375 236.929688 96.652344 239.496094 102.476562 234.617188 C 105.898438 231.707031 107.613281 227.941406 108.640625 223.574219 C 111.464844 211.757812 116.257812 201.484375 129.699219 198.148438 C 136.289062 196.519531 141.855469 192.753906 145.367188 186.589844 C 149.132812 180.082031 147.25 173.664062 140.316406 170.667969 C 131.070312 166.644531 122.765625 169.125 115.230469 175.289062 C 106.242188 182.738281 99.820312 192.15625 94.34375 202.34375 C 90.488281 209.621094 87.835938 217.238281 87.320312 225.285156 C 87.578125 226.742188 87.578125 228.109375 87.835938 229.480469 Z M 96.824219 211.757812 C 102.046875 200.203125 108.554688 189.5 118.226562 181.027344 C 123.277344 176.574219 129.015625 173.492188 136.121094 175.71875 C 141.171875 177.257812 142.199219 180.855469 138.859375 185.050781 C 135.605469 189.160156 131.070312 191.296875 126.101562 192.753906 C 116.085938 195.578125 109.582031 202.171875 106.15625 211.929688 C 104.699219 216.125 103.246094 220.234375 101.789062 224.429688 C 101.277344 225.972656 100.507812 227.339844 99.480469 228.625 C 98.535156 229.824219 97.425781 230.9375 95.796875 230.507812 C 94.085938 230.078125 94 228.28125 93.65625 226.914062 C 93.484375 226.226562 93.65625 225.457031 93.65625 223.660156 C 94.257812 220.234375 95.027344 215.867188 96.824219 211.757812 Z M 277.289062 105.601562 C 281.484375 104.832031 285.167969 103.292969 286.449219 98.667969 C 287.734375 93.875 285.679688 90.277344 282.085938 87.367188 C 277.121094 83.34375 271.210938 82.488281 265.046875 82.488281 C 255.886719 82.402344 246.898438 84.113281 237.738281 84.886719 C 227.464844 85.742188 217.535156 87.796875 208.546875 93.105469 C 206.0625 94.558594 203.75 96.101562 202.210938 98.667969 C 198.957031 103.804688 200.667969 108.515625 206.40625 110.140625 C 212.742188 111.9375 218.90625 110.398438 224.984375 109.027344 C 231.832031 107.488281 238.507812 105.175781 245.613281 104.832031 C 254.347656 104.40625 263.164062 104.917969 271.554688 106.289062 C 273.609375 105.945312 275.492188 105.859375 277.289062 105.601562 Z M 248.011719 98.667969 C 238.765625 99.355469 229.777344 101.410156 220.875 103.71875 C 217.277344 104.660156 213.597656 105.089844 209.914062 105.003906 C 208.632812 105.003906 207.347656 105.003906 206.832031 103.546875 C 206.320312 102.007812 207.519531 101.238281 208.460938 100.550781 C 214.964844 95.84375 222.15625 92.847656 230.121094 91.992188 C 242.277344 90.621094 254.261719 88.308594 266.503906 88.480469 C 270.355469 88.566406 274.121094 89.167969 277.375 91.5625 C 279.089844 92.847656 280.886719 94.21875 280.285156 96.699219 C 279.6875 99.355469 277.203125 99.183594 275.234375 99.609375 C 273.953125 99.867188 272.496094 99.695312 271.210938 99.695312 C 263.507812 99.269531 255.886719 98.070312 248.011719 98.667969 Z M 221.644531 260.128906 C 221.902344 256.535156 221.558594 253.023438 217.792969 251.3125 C 214.109375 249.683594 211.371094 251.824219 208.886719 254.136719 C 207.433594 255.589844 205.890625 255.421875 204.09375 255.164062 C 197.503906 254.222656 193.476562 258.757812 195.191406 265.265625 C 196.046875 268.691406 198.1875 271.34375 200.15625 274.253906 C 205.464844 281.875 209.402344 289.75 203.152344 298.910156 C 201.867188 300.792969 201.183594 303.191406 200.582031 305.417969 C 199.640625 308.753906 199.472656 312.265625 202.636719 314.492188 C 205.71875 316.632812 209.316406 315.777344 211.371094 313.292969 C 216.507812 307.042969 223.269531 305.671875 230.71875 305.757812 C 231.0625 305.757812 231.488281 305.671875 231.832031 305.671875 C 239.109375 304.730469 241.761719 299.851562 238.59375 293.347656 C 236.367188 288.722656 232.859375 285.042969 229.261719 281.445312 C 224.125 276.394531 220.273438 270.832031 221.730469 264.066406 C 221.644531 262.097656 221.558594 261.15625 221.644531 260.128906 Z M 226.953125 299.765625 C 220.789062 299.082031 215.394531 300.453125 211.628906 305.84375 C 211.371094 306.273438 211.027344 306.617188 210.6875 306.957031 C 209.488281 308.070312 208.117188 309.441406 206.492188 308.242188 C 205.207031 307.214844 205.636719 305.589844 206.320312 304.132812 C 207.089844 302.589844 207.519531 300.878906 208.460938 299.425781 C 214.710938 289.578125 212.484375 280.417969 206.492188 271.515625 C 205.035156 269.375 203.324219 267.40625 201.78125 265.351562 C 201.011719 264.238281 200.15625 262.953125 201.183594 261.671875 C 202.039062 260.558594 203.152344 261.15625 204.265625 261.585938 C 207.773438 262.78125 210.515625 261.5 212.570312 258.589844 C 213.167969 257.644531 214.023438 256.535156 215.136719 256.960938 C 216.59375 257.5625 216.078125 258.84375 215.90625 260.128906 C 214.28125 270.144531 217.449219 278.535156 224.726562 285.640625 C 227.722656 288.550781 230.804688 291.460938 232.945312 295.144531 C 234.65625 298.140625 233.371094 300.195312 229.691406 300.28125 C 228.921875 300.109375 227.980469 299.9375 226.953125 299.765625 Z M 226.953125 299.765625 " fill-opacity="1" fill-rule="nonzero"/></g></g></g></g></svg>