<svg xmlns="http://www.w3.org/2000/svg" xmlns:xlink="http://www.w3.org/1999/xlink" width="500" zoomAndPan="magnify" viewBox="0 0 375 374.999991" height="500" preserveAspectRatio="xMidYMid meet" version="1.0"><defs><filter x="0%" y="0%" width="100%" height="100%" id="f4190a18e2"><feColorMatrix values="0 0 0 0 1 0 0 0 0 1 0 0 0 0 1 0 0 0 1 0" color-interpolation-filters="sRGB"/></filter><mask id="891643ccb1"><g filter="url(#f4190a18e2)"><rect x="-37.5" width="450" fill="#000000" y="-37.499999" height="449.999989" fill-opacity="0.32"/></g></mask><clipPath id="a7a771b71e"><path d="M 0 0 L 374.878906 0 L 374.878906 375 L 0 375 Z M 0 0 " clip-rule="nonzero"/></clipPath><clipPath id="4849a63e66"><rect x="0" width="375" y="0" height="375"/></clipPath></defs><rect x="-37.5" width="450" fill="#ffffff" y="-37.499999" height="449.999989" fill-opacity="1"/><rect x="-37.5" width="450" fill="#000000" y="-37.499999" height="449.999989" fill-opacity="1"/><g mask="url(#891643ccb1)"><g transform="matrix(1, 0, 0, 1, 0, 0)"><g clip-path="url(#4849a63e66)"><g clip-path="url(#a7a771b71e)"><path fill="#ffffff" d="M 41.1875 0.0859375 C 39.894531 8.1875 38.949219 16.285156 39.636719 24.558594 C 40.84375 40.414062 34.984375 53.421875 23.695312 64.367188 C 19.300781 68.589844 15.425781 73.328125 13.355469 79.273438 C 9.910156 89.011719 14.90625 99.265625 24.644531 102.710938 C 40.414062 108.398438 68.246094 97.972656 68.332031 72.554688 C 68.332031 66.78125 67.125 61.265625 66.347656 55.578125 C 65.230469 48.082031 65.832031 40.671875 69.277344 33.777344 C 73.328125 25.679688 80.136719 21.628906 89.011719 20.335938 C 98.921875 18.871094 108.914062 20.335938 118.824219 18.871094 C 128.734375 17.40625 138.558594 15.855469 145.882812 8.101562 C 148.121094 5.773438 150.015625 3.1875 151.222656 0.0859375 C 153.464844 0.0859375 155.703125 0.0859375 157.945312 0.0859375 C 154.757812 9.910156 148.121094 16.542969 138.730469 20.507812 C 127.613281 25.246094 115.808594 25.589844 104.003906 25.9375 C 98.832031 26.109375 93.578125 25.851562 88.40625 26.882812 C 79.53125 28.78125 74.105469 34.554688 72.554688 43.6875 C 71.605469 49.632812 72.640625 55.320312 73.757812 61.09375 C 76.34375 74.105469 74.277344 86.167969 65.832031 96.59375 C 58.164062 105.984375 37.65625 115.464844 20.59375 107.96875 C 6.289062 101.675781 1.550781 84.875 10.253906 71 C 13.960938 65.054688 19.128906 60.230469 23.695312 54.976562 C 30.847656 46.789062 33.863281 37.308594 33.261719 26.453125 C 32.65625 17.664062 31.882812 8.875 33.691406 0.0859375 C 36.191406 0.0859375 38.6875 0.0859375 41.1875 0.0859375 Z M 315.890625 374.398438 C 323.300781 367.933594 326.660156 359.316406 327.78125 349.839844 C 329.074219 337.949219 335.105469 330.019531 345.789062 324.9375 C 353.976562 321.058594 362.074219 316.921875 368.796875 310.632812 C 370.777344 308.824219 372.5 306.667969 374.3125 304.773438 C 374.3125 298.828125 374.3125 292.796875 374.3125 286.851562 C 372.070312 283.578125 368.710938 281.9375 365.003906 281.078125 C 355.441406 278.75 346.304688 280.820312 337.949219 285.042969 C 323.386719 292.28125 312.789062 303.222656 309.859375 319.9375 C 307.703125 332.175781 303.480469 343.117188 293.398438 351.132812 C 290.902344 353.113281 288.917969 355.871094 287.28125 358.628906 C 284.179688 363.710938 283.144531 368.96875 285.988281 374.484375 C 295.898438 374.398438 305.894531 374.398438 315.890625 374.398438 Z M 291.675781 370.433594 C 290.039062 367.074219 291.589844 363.882812 293.570312 361.128906 C 295.035156 359.144531 296.585938 357.078125 298.484375 355.527344 C 308.304688 347.339844 313.734375 336.742188 315.71875 324.332031 C 318.734375 305.550781 330.277344 294.605469 347.769531 288.917969 C 351.5625 287.710938 355.441406 286.679688 359.402344 286.765625 C 363.195312 286.851562 366.988281 287.625 368.882812 291.503906 C 370.949219 295.640625 369.65625 299.515625 366.898438 302.964844 C 361.988281 309.082031 355.179688 312.441406 348.546875 316.148438 C 346.304688 317.441406 343.980469 318.734375 341.652344 319.765625 C 329.332031 325.367188 323.042969 335.277344 321.230469 348.375 C 320.113281 356.992188 317.613281 364.832031 310.203125 370.261719 C 307.101562 372.585938 303.824219 374.050781 299.863281 373.792969 C 296.675781 373.707031 293.226562 373.621094 291.675781 370.433594 Z M 374.3125 104.175781 C 371.292969 104.347656 369.484375 106.503906 367.589844 108.484375 C 363.539062 112.621094 360.867188 117.703125 358.542969 122.960938 C 352.941406 135.886719 345.53125 147.605469 334.761719 156.824219 C 328.554688 162.167969 322.09375 167.25 315.71875 172.421875 C 301.585938 183.792969 290.125 196.890625 287.796875 215.761719 C 285.300781 236.355469 300.035156 248.507812 318.300781 245.921875 C 322.953125 245.230469 327.523438 244.027344 331.917969 242.476562 C 346.910156 237.304688 359.488281 240.835938 370.175781 252.210938 C 371.292969 253.417969 372.328125 254.96875 374.222656 255.3125 C 374.222656 252.039062 374.222656 248.851562 374.222656 245.578125 C 371.121094 243.59375 367.933594 241.613281 364.832031 239.632812 C 356.558594 234.289062 347.683594 232.394531 337.863281 234.289062 C 330.796875 235.582031 324.074219 238.339844 316.921875 239.371094 C 306.839844 240.835938 296.242188 235.839844 294.605469 223.863281 C 293.3125 214.554688 296.070312 206.457031 300.550781 198.703125 C 306.238281 188.792969 314.597656 181.296875 323.644531 174.660156 C 342.085938 161.132812 357.25 144.933594 365.78125 123.21875 C 367.503906 118.824219 369.917969 114.429688 374.136719 111.585938 C 374.3125 109.085938 374.3125 106.589844 374.3125 104.175781 Z M 160.183594 374.398438 C 159.667969 373.535156 159.238281 372.671875 158.632812 371.898438 C 151.050781 362.246094 147.605469 351.5625 149.5 339.15625 C 150.792969 331.226562 152 323.214844 152 315.113281 C 152 307.617188 152 300.207031 149.242188 293.054688 C 141.488281 272.976562 113.308594 262.035156 91.855469 271.597656 C 86.855469 273.839844 83.238281 277.457031 82.289062 283.144531 C 81.601562 287.367188 82.03125 291.589844 82.632812 295.8125 C 83.925781 304 86.425781 312.011719 87.203125 320.285156 C 88.148438 330.105469 86.597656 339.242188 79.53125 346.566406 C 74.878906 351.390625 68.847656 354.578125 63.332031 358.457031 C 57.042969 362.851562 50.753906 367.417969 47.046875 374.398438 C 49.546875 374.398438 52.046875 374.398438 54.542969 374.398438 C 59.886719 367.589844 67.125 363.195312 74.277344 358.628906 C 90.648438 348.117188 95.386719 336.136719 92.972656 316.234375 C 92.027344 308.304688 89.871094 300.722656 88.492188 292.882812 C 87.027344 284.351562 89.355469 278.578125 96.164062 276.425781 C 110.640625 271.773438 123.824219 274.527344 135.542969 284.179688 C 140.195312 287.972656 143.125 292.882812 144.589844 298.828125 C 147.347656 310.460938 146.054688 322.09375 144.070312 333.640625 C 141.746094 347.253906 142.953125 360.09375 150.792969 371.8125 C 151.308594 372.585938 152.429688 373.105469 152 374.3125 C 154.671875 374.398438 157.425781 374.398438 160.183594 374.398438 Z M 374.3125 138.558594 C 372.070312 138.472656 370.605469 140.023438 369.140625 141.226562 C 365.347656 144.503906 362.160156 148.292969 359.835938 152.773438 C 354.578125 163.113281 349.148438 173.28125 339.84375 180.777344 C 332.863281 186.464844 325.882812 191.980469 318.558594 197.152344 C 315.542969 199.304688 312.527344 201.546875 310.460938 204.820312 C 307.875 209.042969 306.410156 213.4375 309.167969 218.089844 C 311.753906 222.484375 315.890625 224.378906 320.972656 224.550781 C 325.367188 224.636719 329.246094 222.828125 332.949219 221.019531 C 342.515625 216.453125 351.90625 216.710938 361.128906 221.792969 C 365.261719 224.035156 369.570312 226.015625 374.050781 227.566406 C 374.050781 225.070312 374.050781 222.570312 374.050781 220.070312 C 370.519531 219.640625 367.589844 217.574219 364.574219 216.019531 C 353.714844 210.25 342.6875 209.300781 331.398438 214.46875 C 328.902344 215.589844 326.402344 216.710938 323.816406 217.484375 C 320.457031 218.519531 317.09375 218.089844 315.199219 214.988281 C 313.304688 211.972656 315.199219 209.300781 317.269531 206.972656 C 319.59375 204.390625 322.523438 202.40625 325.453125 200.511719 C 342.171875 189.050781 357.078125 176.039062 365.261719 156.738281 C 367.074219 152.429688 370.003906 148.550781 374.136719 145.96875 C 374.3125 143.554688 374.3125 141.054688 374.3125 138.558594 Z M 0 262.808594 C 1.378906 263.414062 2.671875 264.015625 4.050781 264.621094 C 17.0625 270.566406 29.8125 268.582031 40.152344 258.761719 C 51.355469 248.074219 56.179688 234.804688 55.492188 219.46875 C 54.542969 198.355469 43.257812 193.875 30.847656 191.117188 C 20.335938 188.792969 9.738281 186.984375 0 181.984375 C 0 184.484375 0 186.984375 0 189.480469 C 7.667969 192.757812 15.597656 194.996094 23.867188 196.460938 C 27.660156 197.152344 31.363281 198.097656 34.984375 199.21875 C 41.53125 201.199219 45.839844 205.507812 47.824219 212.058594 C 52.132812 226.449219 46.097656 245.835938 34.292969 255.3125 C 25.765625 262.121094 16.628906 263.328125 6.722656 258.675781 C 4.480469 257.640625 2.242188 256.519531 0.0859375 255.398438 C 0 257.8125 0 260.3125 0 262.808594 Z M 139.9375 374.398438 C 139.417969 371.640625 138.902344 368.796875 138.382812 366.039062 C 135.628906 350.699219 132.957031 335.277344 130.113281 319.9375 C 129.25 315.027344 127.871094 310.203125 125.289062 305.980469 C 122.011719 300.636719 115.636719 299.429688 112.015625 305.894531 C 110.984375 307.789062 109.949219 309.597656 109.261719 311.582031 C 105.898438 321.058594 106.246094 330.882812 106.332031 340.707031 C 106.417969 352.078125 107.105469 363.539062 102.453125 374.484375 C 104.691406 374.484375 106.933594 374.484375 109.175781 374.484375 C 112.792969 363.195312 112.878906 351.476562 112.621094 339.84375 C 112.449219 334.242188 112.621094 328.640625 112.964844 323.042969 C 113.308594 318.300781 114.601562 313.820312 116.929688 309.597656 C 118.050781 307.617188 119.167969 307.789062 120.117188 309.511719 C 120.894531 310.890625 121.410156 312.441406 122.011719 313.90625 C 124.855469 321.921875 125.71875 330.277344 127.183594 338.550781 C 129.335938 350.527344 131.058594 362.503906 133.902344 374.3125 C 135.972656 374.398438 137.953125 374.398438 139.9375 374.398438 Z M 341.308594 0.0859375 C 337.691406 10.339844 337.429688 21.195312 336.136719 31.882812 C 335.019531 40.929688 330.277344 45.753906 320.972656 47.046875 C 313.046875 48.167969 305.289062 47.476562 299.34375 40.84375 C 295.554688 36.535156 295.554688 33.003906 299.429688 28.695312 C 302.792969 25.074219 307.1875 22.921875 311.234375 20.335938 C 318.820312 15.511719 324.074219 9.132812 325.625 0.0859375 C 323.644531 0.0859375 321.664062 0.0859375 319.679688 0.0859375 C 317.269531 7.582031 312.269531 12.839844 305.375 16.542969 C 302.1875 18.265625 299.257812 20.335938 296.5 22.660156 C 288.144531 29.898438 288.144531 39.808594 296.5 47.046875 C 301.414062 51.355469 307.273438 53.164062 313.5625 53.597656 C 327.261719 54.457031 340.53125 49.203125 342.601562 32.914062 C 344.066406 21.886719 344.238281 10.683594 348.117188 0.0859375 C 345.789062 0.0859375 343.550781 0.0859375 341.308594 0.0859375 Z M 363.796875 0.0859375 C 362.851562 3.707031 362.246094 7.324219 362.246094 11.117188 C 362.246094 15.25 362.503906 19.300781 363.625 23.265625 C 366.125 32.65625 363.796875 40.757812 357.765625 48.339844 C 353.542969 53.683594 349.320312 59.109375 347.167969 65.660156 C 343.550781 76.601562 348.117188 87.113281 357.9375 90.304688 C 363.539062 92.113281 368.882812 90.992188 374.222656 89.183594 C 374.222656 86.941406 374.222656 84.703125 374.222656 82.460938 C 372.070312 83.152344 370.003906 83.925781 367.847656 84.445312 C 360.4375 86.253906 353.628906 82.460938 352.597656 75.828125 C 351.992188 71.863281 352.339844 67.898438 354.492188 64.28125 C 356.820312 60.144531 359.574219 56.351562 362.417969 52.648438 C 369.398438 43.6875 372.757812 34.035156 369.828125 22.488281 C 367.933594 15.164062 367.847656 7.496094 370.433594 0.0859375 C 368.277344 0.0859375 366.039062 0.0859375 363.796875 0.0859375 Z M 181.125 0.0859375 C 182.328125 2.671875 183.449219 5.257812 184.828125 7.753906 C 193.960938 25.160156 209.300781 29.726562 226.363281 20.164062 C 235.925781 14.734375 244.457031 7.839844 252.210938 0.0859375 C 248.9375 0.0859375 245.75 0.0859375 242.476562 0.0859375 C 234.71875 7.324219 226.535156 13.871094 216.367188 17.40625 C 207.578125 20.507812 199.996094 18.007812 194.394531 10.511719 C 191.980469 7.324219 189.914062 3.964844 188.621094 0.171875 C 186.121094 0.0859375 183.621094 0.0859375 181.125 0.0859375 Z M 129.507812 0.0859375 C 124.769531 5.515625 118.222656 6.289062 111.671875 6.722656 C 105.382812 7.152344 99.351562 5.515625 93.320312 4.394531 C 88.578125 3.53125 83.925781 3.707031 79.273438 4.308594 C 76.6875 4.652344 74.019531 4.738281 71.433594 4.480469 C 68.761719 4.308594 66.433594 3.1875 65.832031 0.0859375 C 63.332031 0.0859375 60.835938 0.0859375 58.335938 0.0859375 C 62.558594 9.476562 66.953125 11.804688 77.464844 10.683594 C 82.894531 10.082031 88.320312 9.304688 93.75 10.769531 C 100.558594 12.667969 107.449219 13.183594 114.429688 12.753906 C 124.597656 12.148438 132.871094 7.925781 139.246094 0.0859375 C 135.972656 0.0859375 132.785156 0.0859375 129.507812 0.0859375 Z M 0 202.234375 C 7.925781 204.214844 15.164062 207.664062 20.507812 214.125 C 22.921875 217.054688 24.902344 220.328125 23.695312 224.292969 C 22.144531 229.464844 16.371094 231.1875 11.546875 228.171875 C 7.410156 225.585938 4.308594 221.707031 0 219.382812 C 0 222.140625 0 224.898438 0 227.652344 C 3.707031 230.238281 6.894531 233.6875 11.375 235.324219 C 16.890625 237.390625 21.628906 236.183594 25.765625 232.394531 C 29.8125 228.6875 31.449219 224.207031 30.160156 218.605469 C 28.695312 212.230469 24.644531 207.921875 19.730469 204.042969 C 13.871094 199.476562 6.808594 197.238281 0 194.652344 C 0 197.238281 0 199.734375 0 202.234375 Z M 208.871094 374.398438 C 214.296875 362.851562 223.691406 358.371094 235.582031 362.503906 C 243.164062 365.175781 250.488281 368.453125 258.15625 370.863281 C 259.964844 371.46875 261.949219 372.242188 262.722656 374.398438 C 265.480469 374.398438 268.238281 374.398438 270.996094 374.398438 C 268.238281 368.796875 263.414062 365.78125 257.640625 363.96875 C 252.296875 362.332031 247.128906 360.4375 242.042969 358.109375 C 234.804688 354.75 227.136719 353.285156 219.296875 356.042969 C 210.25 359.144531 205.507812 366.554688 201.371094 374.484375 C 203.871094 374.398438 206.371094 374.398438 208.871094 374.398438 Z M 339.066406 374.398438 C 341.738281 368.019531 342.34375 361.214844 343.460938 354.492188 C 346.21875 338.894531 359.144531 327.003906 374.222656 326.488281 C 374.222656 324.246094 374.222656 322.007812 374.222656 319.765625 C 369.65625 320.542969 364.917969 320.457031 360.523438 322.609375 C 347.082031 329.160156 340.015625 340.359375 336.828125 354.492188 C 335.277344 361.214844 335.535156 368.363281 331.570312 374.398438 C 334.070312 374.398438 336.570312 374.398438 339.066406 374.398438 Z M 21.714844 0.0859375 C 21.542969 5.429688 23.007812 10.683594 22.488281 15.941406 C 22.316406 17.664062 22.574219 19.730469 20.507812 20.25 C 18.441406 20.679688 17.921875 18.613281 17.40625 17.148438 C 14.90625 10.597656 9.910156 5.6875 5.945312 0.0859375 C 0 0.0859375 0 0.0859375 0 4.566406 C 1.378906 4.824219 1.894531 6.03125 2.84375 6.808594 C 7.753906 11.203125 10.253906 17.320312 13.699219 22.75 C 15.511719 25.503906 18.179688 26.882812 21.628906 26.539062 C 25.417969 26.109375 26.882812 23.265625 27.402344 20.164062 C 28.433594 13.441406 29.210938 6.808594 27.660156 0.0859375 C 25.679688 0.0859375 23.695312 0.0859375 21.714844 0.0859375 Z M 0 20.335938 C 6.894531 28.347656 9.132812 37.484375 6.722656 47.738281 C 5.859375 51.355469 3.878906 54.371094 0 55.492188 C 0 57.730469 0 59.972656 0 62.210938 C 11.71875 59.371094 14.90625 46.53125 13.960938 37.570312 C 12.753906 27.054688 8.1875 18.179688 0 11.289062 C 0 14.304688 0 17.320312 0 20.335938 Z M 0 113.828125 C 2.152344 120.546875 2.328125 127.269531 0 134.078125 C 0 141.054688 0 148.035156 0 155.015625 C 5.429688 145.191406 8.011719 134.59375 8.101562 123.5625 C 8.1875 114.515625 6.289062 105.898438 0 98.921875 C 0 103.917969 0 108.914062 0 113.828125 Z M 353.285156 374.398438 C 354.234375 369.917969 355.785156 365.609375 357.507812 361.386719 C 358.371094 359.230469 359.835938 357.421875 362.417969 357.421875 C 365.175781 357.421875 365.609375 359.835938 366.210938 361.816406 C 367.503906 366.296875 369.828125 370.347656 372.070312 374.398438 C 373.277344 374.398438 374.742188 374.914062 374.398438 372.5 C 374.050781 369.917969 374.3125 367.246094 374.3125 364.660156 C 372.414062 362.59375 372.328125 359.75 371.207031 357.335938 C 368.710938 351.5625 362.765625 349.496094 357.421875 352.597656 C 355.007812 354.0625 353.285156 356.042969 351.992188 358.628906 C 349.582031 363.625 348.632812 369.226562 346.566406 374.398438 C 348.804688 374.398438 351.046875 374.398438 353.285156 374.398438 Z M 171.386719 374.398438 C 170.179688 372.5 168.886719 370.691406 167.855469 368.796875 C 167.335938 367.847656 167.25 366.554688 168.285156 365.695312 C 169.144531 365.003906 170.179688 365.261719 171.042969 365.867188 C 175.179688 368.625 179.746094 370.003906 184.570312 370.605469 C 186.8125 370.863281 188.1875 372.15625 188.535156 374.398438 C 190.515625 374.398438 192.496094 374.398438 194.480469 374.398438 C 194.480469 370.089844 192.066406 367.160156 188.1875 366.125 C 181.984375 364.488281 175.953125 362.417969 170.09375 359.75 C 168.027344 358.800781 165.441406 358.714844 163.460938 360.695312 C 161.476562 362.765625 161.046875 365.175781 162.082031 367.933594 C 162.855469 370.089844 163.71875 372.242188 164.578125 374.398438 C 166.90625 374.398438 169.144531 374.398438 171.386719 374.398438 Z M 299.429688 0.0859375 C 299.171875 2.328125 297.878906 3.964844 296.5 5.601562 C 294.605469 7.839844 292.105469 8.53125 289.609375 6.722656 C 286.851562 4.824219 284.09375 2.929688 282.199219 0.0859375 C 278.664062 0.0859375 275.21875 0.0859375 271.683594 0.0859375 C 275.132812 3.101562 278.578125 6.117188 282.027344 9.21875 C 288.316406 14.820312 294.519531 15.769531 299.34375 11.71875 C 303.050781 8.703125 305.117188 4.652344 306.152344 0.0859375 C 303.910156 0.0859375 301.671875 0.0859375 299.429688 0.0859375 Z M 374.3125 194.738281 C 370.605469 190.257812 372.242188 185.777344 374.3125 181.296875 C 374.3125 176.296875 374.3125 171.300781 374.3125 166.304688 C 371.554688 170.699219 369.054688 175.265625 367.332031 180.089844 C 363.453125 190.859375 365.347656 197.152344 374.3125 204.476562 C 374.3125 201.199219 374.3125 197.925781 374.3125 194.738281 Z M 244.800781 374.398438 C 241.785156 371.8125 238.082031 370.519531 234.375 370.089844 C 229.203125 369.484375 224.035156 370.003906 220.15625 374.398438 C 228.34375 374.398438 236.527344 374.398438 244.800781 374.398438 Z M 0 324.9375 C 1.207031 319.421875 1.207031 313.992188 0 308.480469 C 0 313.992188 0 319.421875 0 324.9375 Z M 304.515625 145.277344 C 320.972656 143.640625 333.296875 132.613281 333.898438 114.945312 C 334.328125 103.054688 330.539062 92.371094 324.507812 82.546875 C 313.304688 64.023438 296.15625 53.25 276.167969 46.703125 C 264.621094 42.910156 252.902344 40.929688 240.578125 43.257812 C 225.070312 46.273438 211.023438 52.304688 198.183594 61.523438 C 192.757812 65.402344 186.636719 67.898438 179.917969 68.332031 C 168.371094 68.933594 160.011719 63.417969 153.207031 54.714844 C 147.347656 47.304688 141.054688 40.152344 132.699219 35.328125 C 119.773438 27.660156 105.984375 29.210938 95.644531 39.207031 C 86.339844 48.339844 85.476562 59.542969 93.0625 73.328125 C 94.265625 75.484375 95.386719 77.722656 96.25 80.050781 C 98.144531 85.132812 96.679688 88.40625 91.683594 90.5625 C 89.527344 91.507812 87.289062 92.285156 85.046875 93.0625 C 76.085938 96.335938 67.8125 100.730469 61.523438 108.226562 C 52.390625 119.167969 51.097656 132.613281 58.507812 144.070312 C 66.78125 156.652344 84.359375 166.390625 102.023438 153.808594 C 107.710938 149.757812 113.394531 145.796875 119.515625 142.433594 C 135.453125 133.816406 149.242188 136.230469 161.390625 149.671875 C 167.164062 156.050781 172.507812 162.769531 180.089844 167.25 C 191.894531 174.144531 204.214844 172.9375 213.867188 163.375 C 217.660156 159.582031 221.191406 155.53125 224.636719 151.394531 C 236.011719 137.867188 249.886719 133.472656 266.945312 139.074219 C 277.285156 142.433594 287.796875 145.707031 298.914062 145.363281 C 300.722656 145.277344 302.621094 145.449219 304.515625 145.277344 Z M 267.894531 132.957031 C 256.261719 129.683594 244.972656 128.90625 234.117188 135.367188 C 227.914062 139.074219 222.828125 143.898438 218.261719 149.414062 C 215.675781 152.429688 213.089844 155.53125 210.335938 158.375 C 203.011719 166.042969 193.875 167.335938 184.484375 162.425781 C 176.382812 158.203125 171.214844 150.878906 165.183594 144.417969 C 155.617188 134.164062 144.15625 129.164062 130.027344 131.921875 C 122.097656 133.472656 115.207031 137.523438 108.570312 141.917969 C 104.867188 144.417969 101.246094 147 97.457031 149.414062 C 87.460938 155.875 78.671875 155.015625 69.277344 146.742188 C 52.820312 132.351562 59.628906 114.257812 75.570312 104.175781 C 81.082031 100.730469 87.289062 99.007812 93.320312 96.59375 C 102.367188 92.972656 105.382812 86.082031 101.761719 77.035156 C 100.472656 73.84375 98.660156 70.828125 97.195312 67.640625 C 92.542969 58.164062 93.234375 51.097656 99.4375 44.289062 C 105.898438 37.222656 115.378906 34.8125 124.253906 38 C 133.042969 41.1875 139.246094 47.652344 145.105469 54.457031 C 149.414062 59.457031 153.292969 64.882812 158.890625 68.503906 C 170.265625 76 182.070312 76.515625 194.222656 70.484375 C 197.839844 68.761719 201.199219 66.695312 204.476562 64.453125 C 218.261719 55.148438 233.339844 49.632812 249.972656 48.511719 C 260.742188 47.738281 270.910156 50.839844 280.734375 54.714844 C 300.808594 62.730469 316.578125 75.484375 324.59375 96.25 C 327.4375 103.574219 329.074219 111.15625 327.347656 119.167969 C 324.679688 131.058594 315.71875 138.730469 303.394531 139.246094 C 302.015625 139.332031 300.636719 139.246094 299.257812 139.246094 C 288.230469 139.589844 278.148438 135.886719 267.894531 132.957031 Z M 262.035156 264.273438 C 258.5 263.84375 255.3125 262.894531 253.761719 259.105469 C 252.210938 255.3125 253.417969 252.382812 256.003906 249.710938 C 257.984375 247.558594 260.3125 245.921875 262.808594 244.542969 C 277.71875 236.097656 283.492188 223.171875 281.507812 206.371094 C 279.699219 191.207031 265.914062 182.503906 251.609375 187.757812 C 243.335938 190.773438 236.875 196.289062 230.757812 202.40625 C 226.449219 206.714844 222.742188 211.625 218.003906 215.503906 C 211.023438 221.105469 205.679688 221.449219 198.53125 216.109375 C 194.480469 213.089844 190.601562 209.644531 186.550781 206.628906 C 179.226562 201.285156 171.300781 200.167969 163.027344 204.128906 C 158.117188 206.457031 153.980469 209.902344 150.707031 214.210938 C 139.160156 229.378906 140.023438 253.847656 152.515625 269.015625 C 156.050781 273.238281 159.582031 277.371094 163.027344 281.679688 C 170.179688 290.726562 172.421875 300.636719 167.855469 311.667969 C 165.957031 316.40625 163.976562 321.058594 162.425781 325.882812 C 157.6875 340.621094 165.785156 355.527344 180.347656 359.230469 C 188.015625 361.214844 195.339844 360.179688 202.578125 357.507812 C 210.679688 354.492188 217.832031 349.753906 225.414062 345.789062 C 234.203125 341.136719 242.992188 340.101562 251.953125 345.1875 C 254.195312 346.480469 256.691406 347.425781 259.019531 348.546875 C 274.011719 355.527344 285.042969 350.527344 289.78125 334.761719 C 291.933594 327.523438 291.332031 320.199219 291.160156 312.875 C 291.074219 308.566406 292.539062 305.289062 295.640625 302.359375 C 299.949219 298.398438 304.945312 295.8125 310.117188 293.3125 C 313.820312 291.503906 317.355469 289.261719 319.507812 285.644531 C 322.4375 280.648438 321.488281 274.183594 317.09375 269.101562 C 308.824219 259.621094 297.964844 259.105469 286.59375 260.65625 C 279.097656 261.691406 271.945312 264.449219 264.273438 264.707031 C 263.5 264.359375 262.808594 264.359375 262.035156 264.273438 Z M 171.042969 321.058594 C 173.367188 315.027344 176.210938 309.167969 176.644531 302.621094 C 177.589844 290.640625 171.988281 281.335938 164.492188 272.804688 C 158.460938 265.824219 152.34375 259.019531 150.101562 249.625 C 146.914062 236.527344 150.535156 219.382812 162.941406 211.453125 C 169.40625 207.320312 175.351562 206.972656 181.726562 211.28125 C 185.433594 213.78125 188.792969 216.710938 192.324219 219.554688 C 203.871094 228.859375 213.265625 228.601562 224.121094 218.605469 C 229.980469 213.179688 234.804688 206.714844 240.921875 201.632812 C 244.542969 198.617188 248.421875 195.859375 252.816406 194.046875 C 263.414062 189.828125 272.71875 194.996094 274.703125 206.371094 C 277.199219 220.242188 272.375 230.84375 260.226562 238.253906 C 256.777344 240.320312 253.417969 242.476562 250.832031 245.578125 C 246.78125 250.488281 245.058594 255.917969 247.816406 262.207031 C 250.746094 268.84375 256.519531 270.652344 263.070312 270.910156 C 271.253906 271.253906 278.835938 268.066406 286.851562 266.859375 C 294.691406 265.738281 302.535156 265.136719 309.339844 270.394531 C 310.375 271.253906 311.410156 272.203125 312.269531 273.238281 C 316.0625 278.234375 315.371094 282.199219 310.03125 285.386719 C 305.550781 288.058594 300.808594 290.296875 296.414062 293.054688 C 291.074219 296.414062 286.507812 300.636719 284.957031 307.101562 C 284.09375 310.890625 284.609375 314.769531 284.695312 318.648438 C 284.957031 325.023438 284.4375 331.3125 281.59375 337.171875 C 278.40625 343.808594 273.324219 345.960938 266.257812 343.808594 C 261.605469 342.34375 257.296875 340.101562 252.988281 338.035156 C 242.648438 333.121094 232.738281 334.15625 223 339.328125 C 216.453125 342.773438 209.988281 346.480469 203.269531 349.753906 C 197.066406 352.855469 190.429688 354.234375 183.363281 352.855469 C 173.886719 350.875 167.769531 343.550781 167.679688 333.898438 C 167.421875 329.246094 169.40625 325.28125 171.042969 321.058594 Z M 13.527344 365.003906 C 18.785156 373.191406 25.679688 373.621094 30.761719 365.433594 C 37.742188 354.0625 47.476562 346.21875 59.195312 340.445312 C 62.988281 338.550781 66.605469 336.226562 69.191406 332.777344 C 76.429688 323.214844 79.101562 313.132812 72.554688 302.015625 C 69.019531 295.984375 68.675781 289.867188 71.347656 283.492188 C 73.242188 279.007812 74.621094 274.355469 75.308594 269.617188 C 76 264.964844 75.484375 260.570312 71.519531 257.382812 C 67.640625 254.28125 63.417969 254.796875 59.195312 256.863281 C 55.664062 258.589844 52.5625 260.742188 49.804688 263.5 C 46.445312 266.945312 42.480469 269.359375 38 271.167969 C 31.96875 273.582031 25.417969 274.097656 19.300781 276.167969 C 7.066406 280.300781 1.808594 292.019531 8.273438 301.929688 C 12.148438 307.875 12.40625 313.90625 11.375 320.457031 C 10.082031 328.382812 7.839844 336.226562 8.101562 344.410156 C 8.273438 352.769531 9.996094 359.488281 13.527344 365.003906 Z M 17.578125 322.007812 C 19.042969 314.339844 18.957031 307.015625 14.648438 300.121094 C 9.566406 291.933594 12.582031 284.609375 21.886719 281.851562 C 25.074219 280.90625 28.433594 280.386719 31.710938 279.699219 C 41.445312 277.804688 49.203125 272.375 56.265625 265.738281 C 58.164062 263.929688 60.316406 262.464844 62.816406 261.691406 C 66.347656 260.484375 68.332031 261.777344 68.847656 265.480469 C 69.277344 268.667969 68.503906 271.683594 67.640625 274.613281 C 66.78125 277.371094 66.003906 280.128906 64.96875 282.800781 C 61.867188 290.640625 62.988281 298.050781 66.78125 305.375 C 72.378906 316.148438 68.933594 327.523438 58.421875 333.726562 C 53.855469 336.484375 49.117188 339.066406 44.546875 341.824219 C 36.191406 346.824219 30.675781 354.492188 25.417969 362.332031 C 23.007812 365.953125 21.628906 365.867188 19.128906 362.246094 C 15.511719 357.078125 14.476562 351.132812 14.21875 345.875 C 14.648438 337.085938 16.199219 329.589844 17.578125 322.007812 Z M 74.105469 235.925781 C 78.414062 252.816406 96.9375 259.019531 110.378906 248.074219 C 117.1875 242.5625 119.601562 234.71875 121.152344 226.621094 C 122.789062 218.003906 127.269531 212.144531 135.542969 209.214844 C 137.4375 208.523438 139.246094 207.921875 141.140625 207.230469 C 149.070312 204.476562 156.480469 200.769531 161.910156 193.960938 C 165.957031 188.964844 168.027344 183.363281 166.5625 176.988281 C 162.339844 158.03125 149.414062 151.742188 132.699219 152.515625 C 115.980469 153.292969 103.660156 162.425781 95.300781 176.296875 C 87.632812 189.136719 81.859375 203.097656 75.742188 216.796875 C 74.105469 220.414062 72.984375 224.292969 73.328125 228.429688 C 73.15625 231.015625 73.5 233.511719 74.105469 235.925781 Z M 159.667969 175.867188 C 161.390625 181.382812 160.355469 186.378906 156.480469 190.773438 C 151.308594 196.546875 144.675781 199.90625 137.4375 201.890625 C 122.875 205.765625 116.324219 216.019531 113.828125 229.894531 C 112.707031 236.183594 109.519531 241.269531 104.261719 244.886719 C 95.902344 250.660156 84.359375 245.921875 80.824219 235.496094 C 78.84375 229.636719 79.445312 223.863281 81.945312 218.433594 C 87.890625 205.59375 93.578125 192.582031 100.472656 180.261719 C 107.710938 167.335938 119.253906 159.753906 131.921875 158.71875 C 147.863281 158.71875 156.050781 164.320312 159.667969 175.867188 Z M 192.324219 178.28125 C 187.929688 178.625 183.882812 179.832031 182.15625 184.398438 C 180.605469 188.277344 182.675781 193.703125 186.636719 196.632812 C 191.207031 199.996094 196.460938 201.460938 202.0625 201.027344 C 212.144531 200.167969 221.277344 196.546875 229.636719 190.859375 C 240.148438 183.707031 251.4375 178.453125 264.535156 178.796875 C 270.824219 178.96875 276.425781 182.242188 282.628906 183.105469 C 287.539062 183.707031 292.367188 183.882812 296.585938 180.691406 C 301.5 176.988281 303.480469 171.902344 302.1875 165.871094 C 300.894531 159.496094 295.8125 155.359375 288.660156 154.238281 C 276.425781 152.429688 264.359375 153.980469 252.296875 156.050781 C 241.441406 157.859375 231.875 161.996094 223.691406 169.40625 C 216.28125 176.039062 207.492188 178.882812 197.582031 178.195312 C 195.859375 178.28125 194.046875 178.195312 192.324219 178.28125 Z M 287.195312 160.355469 C 291.160156 160.875 294.347656 162.683594 295.640625 166.648438 C 297.535156 172.164062 293.570312 176.988281 287.195312 177.074219 C 283.316406 177.074219 279.527344 176.210938 275.90625 174.832031 C 263.414062 170.007812 251.523438 172.765625 239.890625 177.761719 C 233.945312 180.347656 228.515625 183.882812 223.085938 187.328125 C 216.019531 191.894531 208.179688 194.480469 199.648438 194.566406 C 196.375 194.566406 193.273438 193.445312 190.601562 191.464844 C 189.050781 190.34375 187.84375 188.621094 188.277344 186.722656 C 188.792969 184.570312 190.945312 184.742188 192.582031 184.65625 C 197.753906 184.3125 203.011719 184.484375 208.09375 183.792969 C 215.933594 182.761719 222.3125 178.453125 228.515625 173.714844 C 238.769531 165.871094 250.144531 160.789062 263.242188 160.097656 C 267.378906 159.925781 271.425781 159.582031 275.734375 159.238281 C 279.527344 159.667969 283.316406 159.839844 287.195312 160.355469 Z M 17.234375 161.648438 C 20.421875 164.664062 24.386719 166.128906 28.347656 167.59375 C 37.65625 170.957031 45.753906 175.953125 52.21875 183.535156 C 54.113281 185.777344 56.265625 188.015625 58.59375 189.828125 C 65.746094 195.425781 74.363281 192.929688 76.171875 184.742188 C 77.292969 179.832031 75.308594 175.78125 72.121094 172.164062 C 68.160156 167.679688 63.589844 163.890625 58.851562 160.183594 C 52.734375 155.359375 47.996094 149.84375 47.5625 141.402344 C 47.304688 136.488281 46.789062 131.492188 44.808594 126.925781 C 42.480469 121.324219 37.742188 118.996094 31.882812 120.632812 C 21.714844 123.304688 12.496094 136.917969 12.496094 150.191406 C 12.320312 154.066406 13.699219 158.289062 17.234375 161.648438 Z M 29.46875 128.21875 C 34.984375 124.769531 38.171875 126.0625 39.722656 132.265625 C 40.671875 136.058594 41.015625 139.847656 41.359375 143.640625 C 42.222656 153.464844 48.253906 159.839844 55.40625 165.527344 C 59.28125 168.628906 63.160156 171.730469 66.519531 175.4375 C 68.160156 177.332031 69.796875 179.226562 70.054688 181.8125 C 70.398438 185.519531 67.8125 187.242188 64.28125 185.863281 C 62.558594 185.171875 61.265625 184.054688 60.230469 182.675781 C 51.613281 172.074219 40.671875 164.925781 27.746094 160.617188 C 21.109375 158.375 18.613281 154.585938 18.785156 148.550781 C 19.992188 141.054688 21.714844 133.128906 29.46875 128.21875 Z M 199.304688 52.21875 C 204.300781 48.339844 206.113281 42.910156 204.90625 36.964844 C 203.785156 31.277344 199.476562 28.175781 193.960938 27.144531 C 188.015625 26.023438 183.535156 23.523438 181.296875 17.578125 C 180.777344 16.113281 179.746094 14.734375 178.796875 13.441406 C 175.09375 8.359375 169.234375 6.289062 163.804688 8.1875 C 153.894531 11.546875 146.65625 25.074219 149.414062 35.070312 C 152.859375 47.390625 162.339844 57.730469 175.78125 57.90625 C 185.433594 58.421875 192.929688 57.214844 199.304688 52.21875 Z M 155.53125 32.3125 C 154.066406 26.367188 158.546875 17.835938 163.976562 14.90625 C 168.542969 12.40625 173.023438 14.132812 175.78125 19.558594 C 176.644531 21.195312 177.160156 23.007812 177.847656 24.730469 C 179.398438 28.519531 182.15625 31.019531 186.035156 32.226562 C 188.621094 33.089844 191.207031 33.949219 193.789062 34.8125 C 199.390625 36.878906 200.597656 41.1875 196.632812 45.753906 C 192.84375 50.0625 187.585938 51.097656 182.242188 51.613281 C 181.46875 51.699219 180.777344 51.613281 180.003906 51.613281 C 167.164062 51.871094 158.71875 45.324219 155.53125 32.3125 Z M 252.988281 9.390625 C 246.007812 14.648438 238.167969 18.355469 230.238281 21.972656 C 227.222656 23.351562 224.378906 25.160156 222.226562 28.003906 C 218.949219 32.398438 220.414062 37.136719 225.585938 38.949219 C 230.066406 40.585938 234.203125 39.035156 238.339844 37.742188 C 243.941406 36.019531 249.453125 35.933594 255.226562 36.277344 C 260.914062 36.707031 266.085938 38.863281 271.597656 39.636719 C 281.078125 40.929688 286.421875 34.640625 283.578125 25.589844 C 280.386719 15.078125 270.480469 6.808594 261.171875 6.808594 C 258.242188 6.636719 255.398438 7.667969 252.988281 9.390625 Z M 270.046875 16.714844 C 273.148438 19.472656 275.5625 22.75 277.027344 26.710938 C 277.804688 28.78125 279.355469 30.847656 277.371094 32.914062 C 275.390625 35.070312 272.890625 34.640625 270.480469 33.691406 C 266.257812 32.054688 261.949219 31.191406 257.554688 30.503906 C 250.144531 29.382812 242.992188 29.8125 235.839844 31.96875 C 233.6875 32.570312 231.53125 33.347656 229.292969 33.003906 C 228.6875 32.914062 228 33.175781 227.738281 32.398438 C 227.566406 31.710938 228 31.277344 228.429688 30.847656 C 230.667969 28.78125 233.339844 27.488281 236.097656 26.28125 C 242.5625 23.4375 248.9375 20.335938 254.539062 16.027344 C 256.605469 14.390625 258.847656 13.097656 261.085938 13.269531 C 264.964844 13.269531 267.722656 14.5625 270.046875 16.714844 Z M 373.449219 263.929688 C 372.933594 261.691406 371.726562 259.878906 370.003906 258.328125 C 365.523438 254.195312 360.265625 251.4375 354.492188 249.800781 C 346.910156 247.644531 339.414062 248.246094 332.605469 252.296875 C 326.660156 255.832031 325.023438 261.863281 327.695312 268.496094 C 330.105469 274.269531 334.933594 276.769531 341.652344 274.875 C 348.117188 272.976562 354.492188 272.203125 361.039062 274.097656 C 361.988281 274.355469 363.023438 274.097656 364.058594 274.097656 C 371.292969 274.269531 375 270.308594 373.449219 263.929688 Z M 365.867188 262.984375 C 366.726562 263.929688 367.933594 265.136719 367.246094 266.515625 C 366.554688 267.894531 365.003906 267.378906 363.882812 267.378906 C 362.765625 267.378906 361.644531 267.378906 360.523438 267.03125 C 354.0625 265.308594 347.855469 265.738281 341.566406 267.980469 C 337.171875 269.53125 335.191406 268.667969 333.898438 265.480469 C 332.433594 261.949219 333.382812 259.449219 337.171875 257.210938 C 340.1875 255.484375 343.460938 254.539062 348.117188 254.539062 C 353.976562 255.226562 360.695312 257.296875 365.867188 262.984375 Z M 347.769531 128.648438 C 350.011719 127.441406 351.820312 125.71875 353.199219 123.648438 C 356.734375 118.308594 358.886719 112.363281 359.921875 106.070312 C 361.128906 98.921875 352.941406 89.957031 345.875 90.21875 C 340.53125 90.390625 336.050781 96.335938 337.34375 102.453125 C 338.550781 108.226562 338.207031 113.742188 336.570312 119.253906 C 336.3125 120.117188 336.3125 120.980469 336.226562 121.152344 C 336.3125 128.476562 341.910156 131.835938 347.769531 128.648438 Z M 347.339844 122.53125 C 346.21875 123.648438 344.925781 124.855469 343.117188 123.824219 C 341.308594 122.789062 341.738281 121.066406 341.996094 119.515625 C 342.171875 118.652344 342.429688 117.875 342.859375 117.101562 C 344.839844 113.136719 345.445312 109.175781 343.636719 104.953125 C 343.289062 104.175781 343.117188 103.316406 342.945312 102.453125 C 342.515625 100.296875 342.945312 98.402344 344.753906 97.109375 C 346.652344 95.730469 348.289062 96.9375 349.839844 98.058594 C 352.597656 100.125 353.976562 102.96875 353.976562 107.191406 C 353.199219 112.363281 351.820312 118.136719 347.339844 122.53125 Z M 135.542969 237.21875 C 135.28125 235.925781 134.421875 234.71875 133.472656 233.773438 C 130.371094 230.410156 125.460938 230.496094 123.390625 234.546875 C 120.632812 239.976562 117.273438 245.058594 114.859375 250.574219 C 112.363281 256.347656 114.773438 261.429688 120.546875 263.328125 C 123.996094 264.535156 127.613281 264.878906 131.148438 264.707031 C 136.316406 264.535156 139.160156 261.171875 139.246094 254.882812 C 138.210938 249.710938 137.007812 243.421875 135.542969 237.21875 Z M 123.476562 258.5 C 119.945312 256.777344 118.824219 254.453125 120.546875 251.003906 C 122.617188 246.957031 125.632812 243.421875 127.785156 239.371094 C 128.820312 237.390625 130.628906 238.253906 130.800781 240.0625 C 131.40625 245.230469 132.523438 250.316406 133.816406 255.3125 C 134.507812 257.898438 132.4375 259.277344 128.304688 259.363281 C 126.925781 258.933594 125.113281 259.363281 123.476562 258.5 Z M 326.746094 78.671875 C 330.019531 82.894531 333.8125 84.359375 337.691406 82.894531 C 341.222656 81.515625 343.460938 77.808594 342.601562 72.726562 C 341.910156 68.503906 342.601562 64.539062 343.722656 60.660156 C 344.667969 57.386719 344.667969 54.285156 341.738281 52.21875 C 338.636719 49.976562 335.191406 50.148438 331.917969 52.046875 C 325.882812 55.578125 323.558594 61.265625 323.300781 65.917969 C 323.386719 72.292969 324.417969 75.65625 326.746094 78.671875 Z M 337.601562 58.679688 C 335.878906 64.109375 336.050781 69.625 336.226562 75.222656 C 336.3125 77.035156 335.019531 77.636719 333.46875 76.429688 C 330.367188 73.929688 329.417969 70.570312 329.675781 66.78125 C 329.933594 62.472656 332.003906 59.28125 335.878906 57.386719 C 336.136719 57.300781 336.3125 57.214844 336.570312 57.128906 C 337.691406 57.042969 337.777344 57.992188 337.601562 58.679688 Z M 57.300781 45.238281 C 51.785156 39.550781 42.738281 41.1875 39.378906 49.546875 C 35.585938 59.023438 30.847656 67.296875 23.867188 74.964844 C 17.664062 81.773438 20.507812 90.734375 28.519531 94.351562 C 36.707031 97.972656 45.324219 95.730469 50.839844 88.667969 C 58.078125 79.1875 59.886719 68.332031 60.746094 58.679688 C 60.746094 51.355469 59.714844 47.652344 57.300781 45.238281 Z M 33.089844 89.097656 C 27.144531 87.632812 25.332031 82.289062 29.296875 77.550781 C 30.417969 76.257812 31.710938 75.050781 32.914062 73.757812 C 37.914062 68.417969 41.703125 62.386719 43.429688 55.234375 C 44.460938 50.925781 47.910156 47.304688 50.40625 48.167969 C 54.113281 49.375 54.714844 53.164062 54.542969 56.179688 C 53.769531 66.347656 52.476562 76.429688 45.667969 84.789062 C 43.257812 87.71875 40.414062 89.699219 36.449219 89.527344 C 35.328125 89.355469 34.207031 89.355469 33.089844 89.097656 Z M 325.023438 22.835938 C 322.179688 21.195312 319.164062 21.628906 316.664062 23.695312 C 313.734375 26.023438 310.632812 27.917969 307.273438 29.640625 C 304.429688 31.105469 302.015625 33.433594 302.707031 36.964844 C 303.480469 40.757812 306.324219 42.824219 310.03125 43.429688 C 316.664062 44.546875 324.332031 41.015625 327.867188 35.242188 C 328.8125 33.777344 329.417969 32.140625 329.332031 30.074219 C 329.847656 26.710938 327.867188 24.386719 325.023438 22.835938 Z M 309.859375 36.964844 C 309.253906 35.242188 310.71875 34.898438 311.753906 34.378906 C 314.511719 33.003906 317.183594 31.449219 319.507812 29.382812 C 320.371094 28.609375 321.488281 28.089844 322.523438 28.953125 C 323.644531 29.898438 323.472656 31.191406 322.695312 32.3125 C 320.371094 35.84375 317.183594 37.914062 313.90625 38.34375 C 311.839844 38.34375 310.460938 38.429688 309.859375 36.964844 Z M 288.402344 117.53125 C 299.429688 116.410156 306.152344 108.65625 304.515625 98.746094 C 302.101562 84.183594 293.3125 74.535156 279.441406 70.65625 C 264.015625 66.347656 248.074219 67.125 232.738281 71.777344 C 218.605469 76 204.820312 81.167969 190.773438 85.648438 C 178.710938 89.527344 167.25 88.578125 156.910156 80.480469 C 154.238281 78.414062 151.566406 76.429688 148.8125 74.449219 C 142.175781 69.625 135.714844 64.453125 127.527344 62.472656 C 121.152344 60.921875 116.585938 64.023438 115.035156 70.3125 C 114 74.363281 115.464844 77.894531 116.410156 81.601562 C 118.222656 88.40625 117.703125 90.042969 112.105469 94.351562 C 107.449219 97.972656 102.882812 101.503906 100.039062 106.847656 C 94.699219 116.84375 99.953125 125.546875 111.242188 125.890625 C 117.1875 126.0625 121.925781 123.21875 127.011719 120.980469 C 130.972656 119.253906 134.765625 116.929688 139.332031 117.273438 C 149.414062 117.875 157.945312 121.238281 163.546875 130.285156 C 166.304688 134.679688 169.578125 138.730469 173.886719 141.917969 C 184.398438 149.757812 194.046875 148.8125 202.835938 139.074219 C 205.765625 135.886719 208.695312 132.613281 211.972656 129.769531 C 220.15625 122.53125 229.464844 117.789062 240.75 117.273438 C 251.953125 116.757812 263.070312 117.964844 275.648438 118.136719 C 279.007812 118.566406 283.664062 118.050781 288.402344 117.53125 Z M 251.089844 110.8125 C 229.550781 109.261719 212.746094 117.789062 199.046875 133.902344 C 192.496094 141.660156 187.84375 142.691406 180.261719 138.644531 C 177.332031 137.09375 174.917969 134.9375 172.851562 132.4375 C 171.214844 130.457031 169.664062 128.304688 168.199219 126.148438 C 159.925781 113.65625 145.796875 109.777344 132.179688 112.707031 C 127.097656 113.828125 122.703125 116.238281 118.050781 118.222656 C 114.773438 119.601562 111.5 120.546875 107.96875 119.167969 C 104.953125 117.964844 103.488281 116.238281 104.433594 112.535156 C 105.726562 107.535156 109.433594 104.691406 112.878906 101.503906 C 113.742188 100.730469 114.6875 100.125 115.550781 99.4375 C 123.476562 93.320312 124.855469 89.441406 122.269531 79.789062 C 121.667969 77.550781 120.894531 75.308594 120.980469 72.898438 C 121.152344 69.019531 122.789062 67.8125 126.578125 68.675781 C 131.40625 69.796875 135.367188 72.640625 139.417969 75.308594 C 143.984375 78.5 148.550781 81.773438 152.945312 85.21875 C 164.925781 94.527344 178.195312 96.078125 192.324219 91.507812 C 206.457031 86.941406 220.414062 81.773438 234.632812 77.464844 C 248.421875 73.328125 262.550781 73.15625 276.683594 76.085938 C 287.886719 78.414062 297.621094 89.699219 297.964844 100.125 C 298.140625 106.417969 295.984375 109.085938 289.78125 110.550781 C 284.09375 111.84375 278.40625 111.242188 272.632812 111.414062 C 265.480469 112.105469 258.328125 111.328125 251.089844 110.8125 Z M 173.714844 247.300781 C 173.109375 253.332031 174.832031 258.589844 178.882812 263.070312 C 183.019531 267.722656 187.070312 272.460938 190.429688 277.71875 C 193.703125 282.972656 196.976562 288.488281 196.203125 295.035156 C 195.601562 300.207031 192.410156 304.429688 190.171875 308.996094 C 187.671875 313.992188 185.433594 319.078125 185.691406 324.9375 C 186.035156 331.832031 189.652344 336.3125 195.511719 339.242188 C 201.113281 341.996094 206.371094 340.878906 211.195312 337.085938 C 214.644531 334.328125 216.539062 330.539062 218.605469 326.917969 C 221.878906 321.316406 225.671875 319.59375 231.960938 321.144531 C 235.324219 322.007812 238.769531 322.78125 242.042969 323.816406 C 245.40625 324.9375 248.851562 325.195312 252.382812 325.023438 C 258.414062 324.59375 263.5 319.851562 263.585938 314.078125 C 263.757812 307.703125 266.773438 303.652344 272.117188 300.722656 C 275.304688 299 278.40625 297.191406 280.90625 294.519531 C 282.972656 292.367188 284.78125 289.78125 283.402344 286.507812 C 281.9375 283.144531 278.835938 282.628906 275.648438 282.542969 C 274.789062 282.542969 273.925781 282.714844 273.148438 282.972656 C 261.949219 286.507812 251.609375 284.351562 241.785156 278.40625 C 237.820312 275.992188 235.324219 272.804688 234.460938 268.238281 C 233.425781 263.15625 235.410156 258.675781 237.132812 254.195312 C 239.371094 248.246094 241.957031 242.476562 242.214844 236.011719 C 242.5625 228 237.390625 224.292969 229.636719 226.101562 C 224.121094 227.394531 220.675781 231.273438 217.226562 235.238281 C 213.4375 239.632812 209.128906 240.921875 203.699219 238.425781 C 199.476562 236.527344 194.910156 235.839844 190.257812 236.011719 C 180.691406 235.839844 174.402344 240.320312 173.714844 247.300781 Z M 268.410156 294.949219 C 261.429688 298.742188 257.46875 304.429688 256.863281 312.441406 C 256.519531 316.664062 254.539062 318.300781 250.316406 318.386719 C 244.972656 318.472656 240.148438 316.148438 235.152344 314.941406 C 231.1875 313.992188 227.394531 313.90625 223.433594 315.113281 C 218.347656 316.578125 214.730469 319.679688 212.316406 324.332031 C 211.023438 326.746094 209.730469 329.160156 207.835938 331.140625 C 205.25 333.726562 202.320312 335.105469 198.789062 333.554688 C 194.996094 331.917969 192.582031 329.160156 192.324219 324.765625 C 191.980469 319.335938 194.566406 314.941406 196.890625 310.375 C 199.5625 305.03125 202.835938 299.949219 202.925781 293.746094 C 203.011719 285.644531 199.132812 279.007812 194.910156 272.460938 C 191.464844 267.289062 187.242188 262.722656 183.277344 257.898438 C 181.640625 255.832031 180.433594 253.589844 180.347656 250.832031 C 180.175781 245.578125 182.417969 242.90625 187.671875 242.5625 C 192.066406 242.300781 196.289062 242.648438 200.511719 244.199219 C 210.679688 247.902344 216.28125 246.351562 223.171875 238.082031 C 225.070312 235.839844 226.964844 233.773438 229.722656 232.738281 C 234.117188 231.101562 235.839844 232.480469 235.324219 237.046875 C 234.546875 243.421875 231.617188 249.109375 229.464844 255.054688 C 226.792969 262.550781 226.1875 269.789062 230.582031 276.855469 C 231.703125 278.664062 232.910156 280.386719 234.71875 281.59375 C 246.179688 289.351562 258.328125 293.746094 272.289062 289.695312 C 273.496094 289.351562 274.613281 288.660156 276.339844 289.609375 C 273.839844 292.019531 271.082031 293.484375 268.410156 294.949219 Z M 29.039062 338.808594 C 32.65625 340.273438 35.5 338.464844 38 335.878906 C 39.121094 334.761719 40.328125 333.640625 41.273438 332.347656 C 44.117188 328.640625 47.652344 325.710938 51.699219 323.472656 C 61.695312 318.128906 61.695312 309.339844 56.785156 301.5 C 54.976562 298.65625 54.113281 295.726562 54.976562 292.367188 C 55.578125 289.953125 55.75 287.453125 56.007812 285.042969 C 56.265625 281.9375 55.835938 278.835938 52.648438 277.457031 C 49.546875 276.078125 46.53125 277.457031 44.460938 279.527344 C 40.929688 282.972656 36.621094 284.695312 32.140625 286.160156 C 30.503906 286.679688 28.867188 287.28125 27.316406 288.058594 C 19.042969 292.105469 17.75 298.226562 23.867188 305.03125 C 27.402344 308.910156 27.917969 313.21875 27.230469 318.214844 C 26.625 322.351562 25.074219 326.402344 25.332031 330.96875 C 25.246094 333.984375 25.503906 337.34375 29.039062 338.808594 Z M 33.777344 315.628906 C 34.035156 309.945312 32.742188 304.945312 28.695312 300.636719 C 25.503906 297.277344 25.851562 295.46875 30.160156 293.746094 C 36.449219 291.160156 42.222656 288.058594 47.738281 284.09375 C 48.339844 283.664062 49.117188 282.714844 50.0625 283.578125 C 50.839844 284.265625 50.40625 285.214844 50.148438 286.074219 C 47.824219 293.484375 48.425781 300.378906 52.648438 307.101562 C 55.40625 311.410156 54.457031 314.597656 50.148438 317.183594 C 43.945312 320.886719 38.773438 325.625 34.207031 331.054688 C 33.691406 331.65625 33.175781 332.691406 32.140625 332.347656 C 31.105469 332.089844 31.710938 331.054688 31.539062 330.539062 C 32.140625 325.453125 33.519531 320.628906 33.777344 315.628906 Z M 88.40625 229.550781 C 89.957031 237.046875 97.28125 239.632812 103.140625 234.71875 C 106.589844 231.789062 108.3125 228 109.347656 223.605469 C 112.191406 211.714844 117.015625 201.371094 130.542969 198.011719 C 137.179688 196.375 142.777344 192.582031 146.3125 186.378906 C 150.101562 179.832031 148.207031 173.367188 141.226562 170.351562 C 131.921875 166.304688 123.5625 168.800781 115.980469 175.003906 C 106.933594 182.503906 100.472656 191.980469 94.957031 202.234375 C 91.078125 209.558594 88.40625 217.226562 87.890625 225.328125 C 88.148438 226.792969 88.148438 228.171875 88.40625 229.550781 Z M 97.457031 211.714844 C 102.710938 200.082031 109.261719 189.308594 118.996094 180.777344 C 124.082031 176.296875 129.855469 173.195312 137.007812 175.4375 C 142.089844 176.988281 143.125 180.605469 139.761719 184.828125 C 136.488281 188.964844 131.921875 191.117188 126.925781 192.582031 C 116.84375 195.425781 110.292969 202.0625 106.847656 211.886719 C 105.382812 216.109375 103.917969 220.242188 102.453125 224.464844 C 101.9375 226.015625 101.160156 227.394531 100.125 228.6875 C 99.179688 229.894531 98.058594 231.015625 96.421875 230.582031 C 94.699219 230.152344 94.613281 228.34375 94.265625 226.964844 C 94.09375 226.273438 94.265625 225.5 94.265625 223.691406 C 94.871094 220.242188 95.644531 215.847656 97.457031 211.714844 Z M 279.097656 104.867188 C 283.316406 104.089844 287.023438 102.539062 288.316406 97.886719 C 289.609375 93.0625 287.539062 89.441406 283.921875 86.511719 C 278.921875 82.460938 272.976562 81.601562 266.773438 81.601562 C 257.554688 81.515625 248.507812 83.238281 239.285156 84.011719 C 228.945312 84.875 218.949219 86.941406 209.902344 92.285156 C 207.40625 93.75 205.078125 95.300781 203.527344 97.886719 C 200.253906 103.054688 201.976562 107.796875 207.75 109.433594 C 214.125 111.242188 220.328125 109.691406 226.449219 108.3125 C 233.339844 106.761719 240.0625 104.433594 247.214844 104.089844 C 256.003906 103.660156 264.878906 104.175781 273.324219 105.554688 C 275.390625 105.210938 277.285156 105.125 279.097656 104.867188 Z M 249.625 97.886719 C 240.320312 98.574219 231.273438 100.644531 222.3125 102.96875 C 218.691406 103.917969 214.988281 104.347656 211.28125 104.261719 C 209.988281 104.261719 208.695312 104.261719 208.179688 102.796875 C 207.664062 101.246094 208.871094 100.472656 209.816406 99.78125 C 216.367188 95.042969 223.605469 92.027344 231.617188 91.164062 C 243.851562 89.785156 255.917969 87.460938 268.238281 87.632812 C 272.117188 87.71875 275.90625 88.320312 279.183594 90.734375 C 280.90625 92.027344 282.714844 93.40625 282.113281 95.902344 C 281.507812 98.574219 279.007812 98.402344 277.027344 98.832031 C 275.734375 99.09375 274.269531 98.921875 272.976562 98.921875 C 265.222656 98.488281 257.554688 97.28125 249.625 97.886719 Z M 223.085938 260.398438 C 223.34375 256.777344 223 253.246094 219.210938 251.523438 C 215.503906 249.886719 212.746094 252.039062 210.25 254.367188 C 208.785156 255.832031 207.230469 255.660156 205.421875 255.398438 C 198.789062 254.453125 194.738281 259.019531 196.460938 265.566406 C 197.324219 269.015625 199.476562 271.683594 201.460938 274.613281 C 206.800781 282.285156 210.765625 290.210938 204.476562 299.429688 C 203.183594 301.328125 202.492188 303.738281 201.890625 305.980469 C 200.941406 309.339844 200.769531 312.875 203.957031 315.113281 C 207.058594 317.269531 210.679688 316.40625 212.746094 313.90625 C 217.917969 307.617188 224.722656 306.238281 232.222656 306.324219 C 232.566406 306.324219 232.996094 306.238281 233.339844 306.238281 C 240.664062 305.289062 243.335938 300.378906 240.148438 293.832031 C 237.90625 289.175781 234.375 285.472656 230.757812 281.851562 C 225.585938 276.769531 221.707031 271.167969 223.171875 264.359375 C 223.085938 262.378906 223 261.429688 223.085938 260.398438 Z M 228.429688 300.292969 C 222.226562 299.605469 216.796875 300.980469 213.003906 306.410156 C 212.746094 306.839844 212.402344 307.1875 212.058594 307.53125 C 210.851562 308.652344 209.472656 310.03125 207.835938 308.824219 C 206.542969 307.789062 206.972656 306.152344 207.664062 304.6875 C 208.4375 303.136719 208.871094 301.414062 209.816406 299.949219 C 216.109375 290.039062 213.867188 280.820312 207.835938 271.859375 C 206.371094 269.703125 204.648438 267.722656 203.097656 265.652344 C 202.320312 264.535156 201.460938 263.242188 202.492188 261.949219 C 203.355469 260.828125 204.476562 261.429688 205.59375 261.863281 C 209.128906 263.070312 211.886719 261.777344 213.953125 258.847656 C 214.554688 257.898438 215.417969 256.777344 216.539062 257.210938 C 218.003906 257.8125 217.484375 259.105469 217.3125 260.398438 C 215.675781 270.480469 218.863281 278.921875 226.1875 286.074219 C 229.203125 289.003906 232.308594 291.933594 234.460938 295.640625 C 236.183594 298.65625 234.890625 300.722656 231.1875 300.808594 C 230.410156 300.636719 229.464844 300.464844 228.429688 300.292969 Z M 228.429688 300.292969 " fill-opacity="1" fill-rule="nonzero"/></g></g></g></g></svg>